<?xml version="1.0" encoding="utf-8"?>
<svg xmlns="http://www.w3.org/2000/svg" viewBox="0 0 100 100" width="250" height="250">
  <path fill="#c7ede6" d="M87.215,56.71C88.35,54.555,89,52.105,89,49.5c0-6.621-4.159-12.257-10.001-14.478 C78.999,35.015,79,35.008,79,35c0-11.598-9.402-21-21-21c-9.784,0-17.981,6.701-20.313,15.757C36.211,29.272,34.638,29,33,29 c-7.692,0-14.023,5.793-14.89,13.252C12.906,43.353,9,47.969,9,53.5C9,59.851,14.149,65,20.5,65c0.177,0,0.352-0.012,0.526-0.022 C21.022,65.153,21,65.324,21,65.5C21,76.822,30.178,86,41.5,86c6.437,0,12.175-2.972,15.934-7.614C59.612,80.611,62.64,82,66,82 c4.65,0,8.674-2.65,10.666-6.518C77.718,75.817,78.837,76,80,76c6.075,0,11-4.925,11-11C91,61.689,89.53,58.727,87.215,56.71z" />
  <path fill="#fdfcef" d="M29.875,45.5c0,0,3.64,0,6.125,0s4.5-2.015,4.5-4.5c0-2.333-1.782-4.229-4.055-4.455 C36.467,36.364,36.5,36.187,36.5,36c0-2.485-2.015-4.5-4.5-4.5c-1.438,0-2.703,0.686-3.527,1.736 C28.333,30.6,26.171,28.5,23.5,28.5c-2.761,0-5,2.239-5,5c0,0.446,0.077,0.87,0.187,1.282C18.045,34.005,17.086,33.5,16,33.5 c-1.781,0-3.234,1.335-3.455,3.055C12.364,36.533,12.187,36.5,12,36.5c-2.485,0-4.5,2.015-4.5,4.5s2.015,4.5,4.5,4.5s9.5,0,9.5,0 h5.375V46h3V45.5z" />
  <path fill="#472b29" d="M23.5,28c-3.033,0-5.5,2.467-5.5,5.5c0,0.016,0,0.031,0,0.047C17.398,33.192,16.71,33,16,33 c-1.831,0-3.411,1.261-3.858,3.005C12.095,36.002,12.048,36,12,36c-2.757,0-5,2.243-5,5s2.243,5,5,5h14.875 c0.276,0,0.5-0.224,0.5-0.5s-0.224-0.5-0.5-0.5H12c-2.206,0-4-1.794-4-4s1.794-4,4-4c0.117,0,0.23,0.017,0.343,0.032l0.141,0.019 c0.021,0.003,0.041,0.004,0.062,0.004c0.246,0,0.462-0.185,0.495-0.437C13.232,35.125,14.504,34,16,34 c0.885,0,1.723,0.401,2.301,1.1c0.098,0.118,0.241,0.182,0.386,0.182c0.078,0,0.156-0.018,0.228-0.056 c0.209-0.107,0.314-0.346,0.254-0.573C19.054,34.218,19,33.852,19,33.5c0-2.481,2.019-4.5,4.5-4.5 c2.381,0,4.347,1.872,4.474,4.263c0.011,0.208,0.15,0.387,0.349,0.45c0.05,0.016,0.101,0.024,0.152,0.024 c0.15,0,0.296-0.069,0.392-0.192C29.638,32.563,30.779,32,32,32c2.206,0,4,1.794,4,4c0,0.117-0.017,0.23-0.032,0.343l-0.019,0.141 c-0.016,0.134,0.022,0.268,0.106,0.373c0.084,0.105,0.207,0.172,0.34,0.185C38.451,37.247,40,38.949,40,41c0,2.206-1.794,4-4,4 h-6.125c-0.276,0-0.5,0.224-0.5,0.5s0.224,0.5,0.5,0.5H36c2.757,0,5-2.243,5-5c0-2.397-1.689-4.413-4.003-4.877 C36.999,36.082,37,36.041,37,36c0-2.757-2.243-5-5-5c-1.176,0-2.293,0.416-3.183,1.164C28.219,29.76,26.055,28,23.5,28L23.5,28z" />
  <path fill="#472b29" d="M22,35c-1.403,0-2.609,0.999-2.913,2.341C18.72,37.119,18.301,37,17.875,37 c-1.202,0-2.198,0.897-2.353,2.068C15.319,39.022,15.126,39,14.937,39c-1.529,0-2.811,1.2-2.918,2.732 C12.01,41.87,12.114,41.99,12.251,42c0.006,0,0.012,0,0.018,0c0.13,0,0.24-0.101,0.249-0.232c0.089-1.271,1.151-2.268,2.419-2.268 c0.229,0,0.47,0.042,0.738,0.127c0.022,0.007,0.045,0.01,0.067,0.01c0.055,0,0.11-0.02,0.156-0.054 C15.962,39.537,16,39.455,16,39.375c0-1.034,0.841-1.875,1.875-1.875c0.447,0,0.885,0.168,1.231,0.473 c0.047,0.041,0.106,0.063,0.165,0.063c0.032,0,0.063-0.006,0.093-0.019c0.088-0.035,0.148-0.117,0.155-0.212 C19.623,36.512,20.712,35.5,22,35.5c0.208,0,0.425,0.034,0.682,0.107c0.023,0.007,0.047,0.01,0.07,0.01 c0.109,0,0.207-0.073,0.239-0.182c0.038-0.133-0.039-0.271-0.172-0.309C22.517,35.04,22.256,35,22,35L22,35z" />
  <path fill="#472b29" d="M35.883,36.5c-1.326,0-2.508,0.897-2.874,2.182c-0.038,0.133,0.039,0.271,0.172,0.309 C33.205,38.997,33.228,39,33.25,39c0.109,0,0.209-0.072,0.24-0.182C33.795,37.748,34.779,37,35.883,37 c0.117,0,0.23,0.014,0.342,0.029c0.012,0.002,0.023,0.003,0.035,0.003c0.121,0,0.229-0.092,0.246-0.217 c0.019-0.137-0.077-0.263-0.214-0.281C36.158,36.516,36.022,36.5,35.883,36.5L35.883,36.5z" />
  <path fill="#fff" d="M32.405,78H22.5c-0.276,0-0.5-0.224-0.5-0.5s0.224-0.5,0.5-0.5h9.905c0.276,0,0.5,0.224,0.5,0.5 S32.682,78,32.405,78z" />
  <path fill="#fff" d="M35.5,78h-1c-0.276,0-0.5-0.224-0.5-0.5s0.224-0.5,0.5-0.5h1c0.276,0,0.5,0.224,0.5,0.5 S35.777,78,35.5,78z" />
  <path fill="#fff" d="M40.491,80H31.5c-0.276,0-0.5-0.224-0.5-0.5s0.224-0.5,0.5-0.5h8.991c0.276,0,0.5,0.224,0.5,0.5 S40.767,80,40.491,80z" />
  <path fill="#fff" d="M29.5,80h-1c-0.276,0-0.5-0.224-0.5-0.5s0.224-0.5,0.5-0.5h1c0.276,0,0.5,0.224,0.5,0.5 S29.777,80,29.5,80z" />
  <path fill="#fff" d="M26.5,80h-2c-0.276,0-0.5-0.224-0.5-0.5s0.224-0.5,0.5-0.5h2c0.276,0,0.5,0.224,0.5,0.5 S26.777,80,26.5,80z" />
  <path fill="#fff" d="M32.5,82h-2c-0.276,0-0.5-0.224-0.5-0.5s0.224-0.5,0.5-0.5h2c0.276,0,0.5,0.224,0.5,0.5 S32.776,82,32.5,82z" />
  <path fill="#fff" d="M35.5,73c-0.177,0-0.823,0-1,0c-0.276,0-0.5,0.224-0.5,0.5c0,0.276,0.224,0.5,0.5,0.5 c0.177,0,0.823,0,1,0c0.276,0,0.5-0.224,0.5-0.5C36,73.224,35.776,73,35.5,73z" />
  <path fill="#fff" d="M35.5,75c-0.177,0-4.823,0-5,0c-0.276,0-0.5,0.224-0.5,0.5c0,0.276,0.224,0.5,0.5,0.5 c0.177,0,4.823,0,5,0c0.276,0,0.5-0.224,0.5-0.5C36,75.224,35.776,75,35.5,75z" />
  <path fill="#fff" d="M40.5,77c-0.177,0-2.823,0-3,0c-0.276,0-0.5,0.224-0.5,0.5c0,0.276,0.224,0.5,0.5,0.5 c0.177,0,2.823,0,3,0c0.276,0,0.5-0.224,0.5-0.5C41,77.224,40.776,77,40.5,77z" />
  <g>
    <path fill="#fff" d="M81.5,41h-10c-0.276,0-0.5-0.224-0.5-0.5s0.224-0.5,0.5-0.5h10c0.276,0,0.5,0.224,0.5,0.5 S81.776,41,81.5,41z" />
    <path fill="#fff" d="M85.5,41h-2c-0.276,0-0.5-0.224-0.5-0.5s0.224-0.5,0.5-0.5h2c0.276,0,0.5,0.224,0.5,0.5 S85.776,41,85.5,41z" />
    <path fill="#fff" d="M90.5,43h-10c-0.276,0-0.5-0.224-0.5-0.5s0.224-0.5,0.5-0.5h10c0.276,0,0.5,0.224,0.5,0.5 S90.777,43,90.5,43z" />
    <path fill="#fff" d="M78.5,43h-1c-0.276,0-0.5-0.224-0.5-0.5s0.224-0.5,0.5-0.5h1c0.276,0,0.5,0.224,0.5,0.5 S78.776,43,78.5,43z" />
    <path fill="#fff" d="M75.375,43H73.5c-0.276,0-0.5-0.224-0.5-0.5s0.224-0.5,0.5-0.5h1.875c0.276,0,0.5,0.224,0.5,0.5 S75.651,43,75.375,43z" />
    <path fill="#fff" d="M84.5,39h-5c-0.276,0-0.5-0.224-0.5-0.5s0.224-0.5,0.5-0.5h5c0.276,0,0.5,0.224,0.5,0.5 S84.777,39,84.5,39z" />
    <path fill="#fff" d="M81.5,45h-2c-0.276,0-0.5-0.224-0.5-0.5s0.224-0.5,0.5-0.5h2c0.276,0,0.5,0.224,0.5,0.5 S81.776,45,81.5,45z" />
  </g>
  <g>
    <path fill="#472b29" d="M50.5,73c-1.753,0-3.493-0.222-5.172-0.657c-0.268-0.07-0.428-0.343-0.358-0.61 c0.069-0.266,0.341-0.43,0.61-0.358c2.2,0.572,4.543,0.757,6.807,0.535c0.26-0.012,0.52,0.175,0.546,0.45 c0.026,0.274-0.175,0.519-0.45,0.546C51.83,72.968,51.162,73,50.5,73z" />
  </g>
  <g>
    <path fill="#472b29" d="M68.222,43.721c-0.18,0-0.354-0.098-0.442-0.268c-2.203-4.199-5.848-7.449-10.261-9.151 c-0.258-0.1-0.386-0.389-0.287-0.646c0.1-0.259,0.39-0.388,0.646-0.287c4.641,1.79,8.471,5.207,10.786,9.62 c0.129,0.245,0.034,0.547-0.21,0.675C68.38,43.702,68.301,43.721,68.222,43.721z" />
  </g>
  <g>
    <path fill="#472b29" d="M54.777,33.458c-0.035,0-0.07-0.004-0.106-0.012c-2.472-0.537-5.1-0.587-7.585-0.148 c-0.269,0.057-0.531-0.132-0.579-0.405c-0.048-0.271,0.133-0.531,0.405-0.579c2.614-0.461,5.372-0.408,7.972,0.156 c0.27,0.059,0.44,0.325,0.382,0.595C55.215,33.298,55.008,33.458,54.777,33.458z" />
  </g>
  <g>
    <path fill="#472b29" d="M34.529,65.041c-0.151,0-0.301-0.068-0.399-0.198c-1.691-2.241-2.886-4.754-3.547-7.471 c-0.065-0.269,0.099-0.539,0.367-0.604c0.271-0.066,0.539,0.099,0.604,0.367c0.63,2.583,1.765,4.973,3.375,7.104 c0.166,0.221,0.122,0.534-0.098,0.701C34.74,65.008,34.635,65.041,34.529,65.041z" />
  </g>
  <g>
    <path fill="#472b29" d="M42.127,71.168c-0.07,0-0.142-0.015-0.209-0.046c-2.035-0.938-3.895-2.2-5.525-3.749 c-0.201-0.189-0.209-0.506-0.019-0.706c0.189-0.201,0.507-0.207,0.706-0.019c1.553,1.473,3.321,2.673,5.256,3.565 c0.251,0.116,0.36,0.413,0.245,0.663C42.496,71.061,42.315,71.168,42.127,71.168z" />
  </g>
  <g>
    <path fill="#f4989e" d="M29.649,53.3v-2H27.7v-3.485c0-2.82,2.228-5.114,4.965-5.114h7.67 c2.737,0,4.965,2.294,4.965,5.114V51.3h-1.949v2H29.649z" />
    <path fill="#472b29" d="M40.335,43.4c2.352,0,4.265,1.98,4.265,4.414V50.6h-0.549h-1.4V52v0.6H30.349V52v-1.4h-1.4H28.4 v-2.786c0-2.434,1.913-4.414,4.265-4.414h2.13h0.608h0.366h1.462h0.366h0.608H40.335 M40.335,42h-2.13h-0.608h-0.366h-1.462 h-0.366h-0.608h-2.13C29.536,42,27,44.603,27,47.814V52h1.949v2h15.103v-2H46v-4.186C46,44.603,43.464,42,40.335,42L40.335,42z" />
    <path fill="#fabf82" d="M36.548,44.686c-0.668,0-1.181-0.177-1.525-0.525c-0.525-0.53-0.522-1.316-0.522-1.324v-3.047 h3.998v3.038c0.001,0.037,0.036,0.818-0.461,1.342C37.712,44.512,37.211,44.686,36.548,44.686z" />
    <path fill="#472b29" d="M37.998,40.29v2.537v0.032L38,42.891c0,0.005,0.009,0.577-0.322,0.93 c-0.227,0.242-0.607,0.365-1.131,0.365c-1.343,0-1.547-0.844-1.548-1.358V40.29H37.998 M38.998,39.29H34v3.537 c0,0-0.054,2.358,2.548,2.358c2.602,0,2.45-2.358,2.45-2.358V39.29L38.998,39.29z" />
    <path fill="#fabf82" d="M37,41c3.339,0,6.048-2.739,5.999-6.088c-0.046-3.184-2.727-5.865-5.911-5.911 C33.739,28.952,31,31.661,31,35C31,38.309,33.691,41,37,41" />
    <path fill="#472b29" d="M37,41.7c-3.694,0-6.7-3.006-6.7-6.7c0-1.807,0.71-3.5,1.999-4.771 c1.288-1.27,2.979-1.942,4.799-1.929c3.589,0.052,6.55,3.013,6.602,6.602c0.026,1.806-0.659,3.511-1.929,4.799 C40.5,40.99,38.807,41.7,37,41.7z M36.998,29.7c-1.399,0-2.716,0.54-3.717,1.526C32.262,32.231,31.7,33.571,31.7,35 c0,2.923,2.377,5.3,5.3,5.3c1.429,0,2.769-0.562,3.773-1.581s1.547-2.368,1.525-3.797c-0.04-2.79-2.431-5.181-5.221-5.221 C37.052,29.7,37.024,29.7,36.998,29.7z" />
    <g>
      <path fill="#472b29" d="M37.046,27.498c-3.191,0.265-6.609,2.127-6.421,6.564l0.5,2.188 c-0.27-3.515,2.869-3.438,4.266-3.512c2.894,0.043,6.144,0.457,6.756-0.238c0.967-1.195,1.392-2.507,0.981-4 C40.768,28.875,40.002,27.406,37.046,27.498z" />
      <path fill="#472b29" d="M30.442,36.406l-0.517-2.314c-0.209-4.932,3.674-7.011,7.063-7.291l0.036-0.002 c1.598-0.073,2.599,0.313,3.486,0.635c0.831,0.3,1.488,0.534,2.508,0.375l0.618-0.099l0.166,0.604 c0.443,1.609,0.069,3.166-1.111,4.626c-0.662,0.75-2.175,0.712-5.019,0.581c-0.752-0.035-1.535-0.072-2.293-0.083l-0.215,0.011 c-0.881,0.039-2.21,0.097-2.879,0.852c-0.372,0.419-0.527,1.057-0.463,1.896L30.442,36.406z M37.086,28.197 c-2.702,0.229-5.521,1.689-5.753,5.072c1.069-1.101,2.753-1.174,3.771-1.219l0.25-0.012c0.82,0.011,1.618,0.048,2.385,0.084 c1.402,0.067,3.52,0.167,3.906-0.107c0.723-0.899,1.03-1.797,0.921-2.758c-1.038,0.03-1.786-0.24-2.529-0.508 C39.23,28.459,38.395,28.162,37.086,28.197z" />
    </g>
    <g>
      <rect width="4" height="4.979" x="41.5" y="48.5" fill="#fabf82" />
      <path fill="#472b29" d="M45.5,53.979h-4c-0.276,0-0.5-0.224-0.5-0.5V48.5c0-0.276,0.224-0.5,0.5-0.5h4 c0.276,0,0.5,0.224,0.5,0.5v4.979C46,53.756,45.776,53.979,45.5,53.979z M42,52.979h3V49h-3V52.979z" />
      <g>
        <rect width="4" height="4.979" x="27.5" y="48.5" fill="#fabf82" />
        <path fill="#472b29" d="M31.5,53.979h-4c-0.276,0-0.5-0.224-0.5-0.5V48.5c0-0.276,0.224-0.5,0.5-0.5h4 c0.276,0,0.5,0.224,0.5,0.5v4.979C32,53.756,31.776,53.979,31.5,53.979z M28,52.979h3V49h-3V52.979z" />
      </g>
    </g>
  </g>
  <g>
    <path fill="#8889b9" d="M58.482,72.3v-2h-1.949v-3.486c0-2.819,2.228-5.113,4.965-5.113h7.67 c2.737,0,4.965,2.294,4.965,5.114V70.3h-1.948v2H58.482z" />
    <path fill="#472b29" d="M69.168,62.4c2.352,0,4.265,1.98,4.265,4.414V69.6h-0.549h-1.4V71v0.6H59.182V71v-1.4h-1.4h-0.549 v-2.786c0-2.434,1.913-4.414,4.265-4.414h2.13h0.608h0.366h1.462h0.366h0.608H69.168 M69.168,61h-2.13H66.43h-0.366h-1.462 h-0.366h-0.608h-2.13c-3.129,0-5.665,2.603-5.665,5.814V71h1.949v2h15.103v-2h1.949v-4.186C74.833,63.603,72.297,61,69.168,61 L69.168,61z" />
    <path fill="#fabf82" d="M65.285,63.686c-0.663,0-1.164-0.174-1.489-0.517c-0.497-0.523-0.462-1.305-0.462-1.313 l0.001-3.067h3.998v3.038c0,0.017,0.003,0.803-0.522,1.333C66.466,63.509,65.953,63.686,65.285,63.686z" />
    <path fill="#472b29" d="M66.833,59.29l0,2.548c-0.002,0.503-0.205,1.348-1.548,1.348c-0.517,0-0.895-0.12-1.122-0.356 c-0.346-0.359-0.33-0.938-0.33-0.938l0,0l0.002-0.032v-0.032V59.29H66.833 M67.833,58.29h-4.998v3.537 c0,0-0.151,2.358,2.45,2.358c2.602,0,2.548-2.358,2.548-2.358V58.29L67.833,58.29z" />
    <path fill="#fabf82" d="M64.833,60c-3.339,0-6.048-2.739-5.999-6.088c0.046-3.184,2.727-5.865,5.911-5.911 c3.35-0.048,6.088,2.661,6.088,5.999C70.833,57.309,68.143,60,64.833,60" />
    <path fill="#472b29" d="M64.833,60.7c-1.807,0-3.5-0.71-4.771-1.999c-1.27-1.288-1.955-2.993-1.929-4.799 c0.052-3.589,3.013-6.55,6.602-6.602c1.824-0.032,3.511,0.659,4.799,1.929c1.289,1.271,1.999,2.964,1.999,4.771 C71.533,57.694,68.527,60.7,64.833,60.7z M64.835,48.7c-0.026,0-0.053,0-0.08,0.001c-2.79,0.04-5.181,2.431-5.221,5.221 c-0.021,1.429,0.521,2.777,1.525,3.797s2.345,1.581,3.773,1.581c2.923,0,5.3-2.377,5.3-5.3c0-1.429-0.562-2.769-1.581-3.773 C67.551,49.24,66.234,48.7,64.835,48.7z" />
    <g>
      <path fill="#472b29" d="M64.787,46.498c3.191,0.265,6.609,2.127,6.421,6.564l-0.5,2.188 c0.27-3.515-2.869-3.438-4.266-3.512c-2.894,0.043-6.144,0.457-6.756-0.238c-0.967-1.195-1.392-2.507-0.981-4 C61.065,47.875,61.832,46.406,64.787,46.498z" />
      <path fill="#472b29" d="M71.391,55.406l-1.381-0.21c0.064-0.839-0.091-1.477-0.463-1.896 c-0.668-0.754-1.998-0.813-2.879-0.852l-0.263-0.012c-0.71,0.012-1.493,0.049-2.245,0.084c-2.843,0.137-4.356,0.171-4.999-0.559 c-1.2-1.482-1.574-3.039-1.131-4.648l0.166-0.604l0.618,0.099c1.022,0.161,1.677-0.075,2.508-0.375 c0.889-0.32,1.888-0.693,3.486-0.635l0.036,0.002c3.389,0.28,7.271,2.359,7.063,7.291l-0.017,0.127L71.391,55.406z M66.432,51.038 l0.298,0.013c1.018,0.045,2.701,0.118,3.771,1.219c-0.233-3.383-3.051-4.843-5.753-5.072c-1.305-0.02-2.145,0.263-2.949,0.553 c-0.743,0.269-1.511,0.534-2.529,0.508c-0.108,0.962,0.204,1.865,0.962,2.802c0.346,0.229,2.464,0.129,3.863,0.063 C64.861,51.087,65.659,51.05,66.432,51.038z" />
    </g>
    <g>
      <rect width="4" height="4.979" x="56.333" y="67.5" fill="#fabf82" />
      <path fill="#472b29" d="M60.333,72.979h-4c-0.276,0-0.5-0.224-0.5-0.5V67.5c0-0.276,0.224-0.5,0.5-0.5h4 c0.276,0,0.5,0.224,0.5,0.5v4.979C60.833,72.756,60.609,72.979,60.333,72.979z M56.833,71.979h3V68h-3V71.979z" />
      <g>
        <rect width="4" height="4.979" x="70.333" y="67.5" fill="#fabf82" />
        <path fill="#472b29" d="M74.333,72.979h-4c-0.276,0-0.5-0.224-0.5-0.5V67.5c0-0.276,0.224-0.5,0.5-0.5h4 c0.276,0,0.5,0.224,0.5,0.5v4.979C74.833,72.756,74.609,72.979,74.333,72.979z M70.833,71.979h3V68h-3V71.979z" />
      </g>
    </g>
  </g>
  <g>
    <path fill="#fdfcef" d="M80.5,75.5c0,0,1.567,0,3.5,0s3.5-1.567,3.5-3.5c0-1.781-1.335-3.234-3.055-3.455 C84.473,68.366,84.5,68.187,84.5,68c0-1.933-1.567-3.5-3.5-3.5c-1.032,0-1.95,0.455-2.59,1.165 c-0.384-1.808-1.987-3.165-3.91-3.165c-2.209,0-4,1.791-4,4c0,0.191,0.03,0.374,0.056,0.558C70.128,66.714,69.592,66.5,69,66.5 c-1.228,0-2.245,0.887-2.455,2.055C66.366,68.527,66.187,68.5,66,68.5c-1.933,0-3.5,1.567-3.5,3.5s1.567,3.5,3.5,3.5s7.5,0,7.5,0 V76h7V75.5z" />
    <path fill="#472b29" d="M82.25,71C82.112,71,82,70.888,82,70.75c0-1.223,0.995-2.218,2.218-2.218 c0.034,0.009,0.737-0.001,1.244,0.136c0.133,0.036,0.212,0.173,0.176,0.306c-0.036,0.134-0.173,0.213-0.306,0.176 c-0.444-0.12-1.1-0.12-1.113-0.118c-0.948,0-1.719,0.771-1.719,1.718C82.5,70.888,82.388,71,82.25,71z" />
    <circle cx="75.5" cy="75.5" r=".5" fill="#472b29" />
    <path fill="#472b29" d="M84,76h-3.5c-0.276,0-0.5-0.224-0.5-0.5s0.224-0.5,0.5-0.5H84c1.654,0,3-1.346,3-3 c0-1.496-1.125-2.768-2.618-2.959c-0.134-0.018-0.255-0.088-0.336-0.196s-0.115-0.244-0.094-0.377C83.975,68.314,84,68.16,84,68 c0-1.654-1.346-3-3-3c-0.85,0-1.638,0.355-2.219,1c-0.125,0.139-0.321,0.198-0.5,0.148c-0.182-0.049-0.321-0.195-0.36-0.379 C77.58,64.165,76.141,63,74.5,63c-1.93,0-3.5,1.57-3.5,3.5c0,0.143,0.021,0.28,0.041,0.418c0.029,0.203-0.063,0.438-0.242,0.54 c-0.179,0.102-0.396,0.118-0.556-0.01C69.878,67.155,69.449,67,69,67c-0.966,0-1.792,0.691-1.963,1.644 c-0.048,0.267-0.296,0.446-0.569,0.405C66.314,69.025,66.16,69,66,69c-1.654,0-3,1.346-3,3s1.346,3,3,3h7.5 c0.276,0,0.5,0.224,0.5,0.5S73.776,76,73.5,76H66c-2.206,0-4-1.794-4-4s1.794-4,4-4c0.059,0,0.116,0.002,0.174,0.006 C66.588,66.82,67.711,66,69,66c0.349,0,0.689,0.061,1.011,0.18C70.176,63.847,72.126,62,74.5,62c1.831,0,3.466,1.127,4.153,2.774 C79.333,64.276,80.155,64,81,64c2.206,0,4,1.794,4,4c0,0.048-0.001,0.095-0.004,0.142C86.739,68.59,88,70.169,88,72 C88,74.206,86.206,76,84,76z" />
    <path fill="#472b29" d="M78.5,75c-0.159,0-0.841,0-1,0c-0.276,0-0.5,0.224-0.5,0.5c0,0.276,0.224,0.5,0.5,0.5 c0.159,0,0.841,0,1,0c0.276,0,0.5-0.224,0.5-0.5C79,75.224,78.776,75,78.5,75z" />
  </g>
</svg>