<?xml version="1.0" encoding="utf-8"?>
<svg xmlns="http://www.w3.org/2000/svg" viewBox="0 0 100 100" width="250" height="250">
  <path fill="#c7ede6" d="M88.683,56.007c0.3-0.616,0.566-1.264,0.796-1.943c2.633-7.77-1.349-17.078-9.733-19.325c-0.906-11.384-8.906-19.193-17.941-20.526C51.464,12.689,41.991,19.259,38.839,29.7c-3.799-1.346-7.501-1.182-10.99,0.857c-1.583,0.732-3.031,1.812-4.33,3.233c-1.907,2.086-3.147,4.719-3.652,7.495c-0.748,0.118-1.483,0.236-2.176,0.484c-4.04,1.449-6.589,4.431-7.288,8.923c-0.435,2.797,0.443,5.587,0.933,6.714c1.935,4.455,6.422,6.98,10.981,6.312c0.227-0.033,0.557,0.069,0.752,0.233c0.241,7.12,3.698,13.417,8.884,17.014c8.321,5.772,19.027,3.994,25.781-3.921c2.894,2.96,6.338,4.398,10.384,3.876c4.023-0.519,7.147-2.739,9.426-6.349c1.053,0.283,2.051,0.691,3.083,0.804c4.042,0.442,7.324-1.165,9.732-4.8c0.922-1.391,1.793-3.194,1.793-6.354C92.153,60.964,90.86,57.997,88.683,56.007z" />
  <path fill="#fff" d="M18.348 48.043H8.318c-.276 0-.5-.224-.5-.5s.224-.5.5-.5h10.03c.276 0 .5.224.5.5S18.624 48.043 18.348 48.043zM21.229 48.043h-1.445c-.276 0-.5-.224-.5-.5s.224-.5.5-.5h1.445c.276 0 .5.224.5.5S21.505 48.043 21.229 48.043zM25.284 48.043h-2.546c-.276 0-.5-.224-.5-.5s.224-.5.5-.5h2.546c.276 0 .5.224.5.5S25.56 48.043 25.284 48.043zM25.284 49.908h-9.616c-.276 0-.5-.224-.5-.5s.224-.5.5-.5h9.616c.276 0 .5.224.5.5S25.56 49.908 25.284 49.908zM13.936 49.908h-.58c-.276 0-.5-.224-.5-.5s.224-.5.5-.5h.58c.276 0 .5.224.5.5S14.212 49.908 13.936 49.908zM11.559 49.908h-1.456c-.276 0-.5-.224-.5-.5s.224-.5.5-.5h1.456c.276 0 .5.224.5.5S11.835 49.908 11.559 49.908zM20.695 46.179h-5.027c-.276 0-.5-.224-.5-.5s.224-.5.5-.5h5.027c.276 0 .5.224.5.5S20.971 46.179 20.695 46.179zM20.695 44.313h-1.257c-.276 0-.5-.224-.5-.5s.224-.5.5-.5h1.257c.276 0 .5.224.5.5S20.971 44.313 20.695 44.313zM17.426 51.773h-1.759c-.276 0-.5-.224-.5-.5s.224-.5.5-.5h1.759c.276 0 .5.224.5.5S17.703 51.773 17.426 51.773z" />
  <path fill="#c0e5e4" d="M36.081,68.916c0,0,11.233,0,11.301,0c2.594,0,4.697-2.103,4.697-4.697c0-2.263-1.601-4.152-3.732-4.597c0.025-0.198,0.041-0.399,0.041-0.603c0-2.687-2.178-4.865-4.865-4.865c-1.586,0-2.991,0.763-3.879,1.938c-0.227-2.991-2.898-5.298-6.024-4.916c-2.285,0.28-4.176,2.046-4.596,4.31c-0.135,0.726-0.121,1.431,0.014,2.092c-0.613-0.66-1.485-1.075-2.456-1.075c-1.778,0-3.229,1.384-3.344,3.133c-0.807-0.179-1.685-0.167-2.61,0.18c-1.768,0.664-3.027,2.328-3.1,4.215c-0.105,2.68,2.037,4.885,4.693,4.885c0.202,0,0.911,0,1.074,0h9.753" />
  <path fill="#472b29" d="M47.382,69.416H36.081c-0.276,0-0.5-0.224-0.5-0.5s0.224-0.5,0.5-0.5h11.301c2.314,0,4.197-1.883,4.197-4.197c0-1.977-1.402-3.704-3.335-4.108c-0.254-0.053-0.426-0.292-0.394-0.55c0.021-0.178,0.038-0.358,0.038-0.542c0-2.407-1.958-4.365-4.365-4.365c-1.376,0-2.645,0.634-3.48,1.739c-0.125,0.166-0.341,0.236-0.539,0.178c-0.2-0.059-0.342-0.234-0.358-0.442c-0.1-1.317-0.744-2.555-1.77-3.396c-1.036-0.849-2.348-1.226-3.694-1.062c-2.072,0.254-3.785,1.86-4.166,3.905c-0.118,0.64-0.114,1.279,0.013,1.9c0.045,0.22-0.062,0.442-0.262,0.545c-0.197,0.103-0.442,0.061-0.595-0.104c-0.548-0.59-1.29-0.916-2.09-0.916c-1.498,0-2.747,1.171-2.845,2.666c-0.01,0.146-0.082,0.28-0.199,0.367c-0.116,0.087-0.265,0.119-0.408,0.088c-0.802-0.178-1.564-0.125-2.326,0.16c-1.597,0.599-2.713,2.113-2.776,3.766c-0.045,1.155,0.369,2.248,1.168,3.078c0.799,0.831,1.873,1.288,3.025,1.288h10.827c0.276,0,0.5,0.224,0.5,0.5s-0.224,0.5-0.5,0.5H22.221c-1.427,0-2.757-0.566-3.746-1.595c-0.989-1.028-1.503-2.381-1.447-3.81c0.08-2.05,1.456-3.924,3.425-4.664c0.766-0.288,1.557-0.386,2.362-0.29c0.37-1.751,1.931-3.055,3.768-3.055c0.649,0,1.285,0.167,1.848,0.476c0.002-0.36,0.036-0.722,0.104-1.083c0.459-2.47,2.526-4.409,5.027-4.715c1.62-0.2,3.2,0.256,4.449,1.28c0.959,0.787,1.643,1.862,1.956,3.047c0.974-0.87,2.225-1.353,3.558-1.353c2.958,0,5.365,2.407,5.365,5.365c0,0.075-0.002,0.15-0.006,0.225c2.166,0.654,3.696,2.679,3.696,4.976C52.579,67.085,50.248,69.416,47.382,69.416z" />
  <path fill="#472b29" d="M23.054 65.21c-.006 0-.011 0-.017 0-.138-.009-.242-.128-.232-.266.103-1.53 1.536-2.69 3.188-2.578.127.008.256.025.385.049.267-.929 1.216-1.574 2.28-1.505.398.026.782.154 1.108.362.001-.013.002-.026.003-.04.117-1.729 1.727-3.034 3.605-2.912.138.009.242.128.232.266-.008.132-.118.233-.249.233-.005 0-.011 0-.017 0-1.569-.11-2.976.992-3.074 2.447-.012.177-.004.354.022.528.017.109-.04.217-.141.264-.102.047-.221.023-.294-.061-.303-.343-.752-.557-1.23-.589-.91-.061-1.696.53-1.808 1.341-.011.071-.05.135-.11.174-.059.04-.132.053-.203.033-.183-.049-.365-.08-.544-.092-1.392-.092-2.572.858-2.657 2.112C23.294 65.109 23.185 65.21 23.054 65.21zM44.874 62.19c-.018 0-.036-.002-.055-.006-.135-.03-.22-.164-.189-.299.046-.205.117-.408.211-.604.754-1.563 2.792-2.165 4.549-1.335.125.059.179.208.12.333-.06.126-.211.177-.333.12-1.508-.709-3.249-.217-3.885 1.1-.078.161-.137.328-.174.497C45.092 62.111 44.989 62.19 44.874 62.19z" />
  <path fill="#fdfcee" d="M38.035,69.289h26.311c2.01,0,3.654-1.644,3.654-3.654V50.941c0-2.01-1.644-3.654-3.654-3.654H38.035c-2.01,0-3.654,1.644-3.654,3.654v14.694C34.381,67.645,36.025,69.289,38.035,69.289z" />
  <path fill="#472b29" d="M64.346,69.89H38.035c-2.346,0-4.253-1.909-4.253-4.254V50.941c0-2.346,1.907-4.254,4.253-4.254h26.312c2.346,0,4.254,1.909,4.254,4.254v14.694C68.6,67.981,66.692,69.89,64.346,69.89z M38.035,47.887c-1.684,0-3.054,1.37-3.054,3.054v14.694c0,1.684,1.37,3.054,3.054,3.054h26.312c1.685,0,3.055-1.37,3.055-3.054V50.941c0-1.684-1.37-3.054-3.055-3.054H38.035z" />
  <path fill="#472b29" d="M55.906 57.407c-.109 0-.217-.051-.285-.147-.112-.158-.075-.376.083-.488l11.515-8.164c.156-.112.375-.076.487.083.112.158.075.376-.083.488l-11.515 8.164C56.046 57.386 55.976 57.407 55.906 57.407zM47.404 57.373c-.068 0-.137-.02-.197-.061l-11.912-8.13c-.16-.109-.201-.327-.092-.486.108-.161.326-.2.486-.092l11.912 8.13c.16.109.201.327.092.486C47.625 57.319 47.515 57.373 47.404 57.373zM34.71 67.553c-.114 0-.227-.056-.294-.16-.104-.162-.059-.379.104-.484L51.005 56.21c.491-.318 1.141-.307 1.619.028l15.212 10.678c.158.111.196.33.085.488-.109.159-.328.197-.487.085L52.222 56.811c-.243-.17-.587-.175-.836-.014L34.901 67.496C34.842 67.535 34.776 67.553 34.71 67.553z" />
  <path fill="#fdfcee" d="M39.685,50.509v-6.102c3.079-2.727,4.838-4.285,7.918-7.013h7.357h3.56h1.108h0.496c1.878,0,3.415,1.361,3.415,3.025v7.803" />
  <path fill="#472b29" d="M39.685 50.859c-.193 0-.35-.157-.35-.35v-6.103c0-.1.043-.196.117-.262l7.918-7.013c.064-.057.146-.088.232-.088h12.521c2.076 0 3.765 1.514 3.765 3.375v7.803c0 .193-.156.35-.35.35s-.35-.157-.35-.35v-7.803c0-1.475-1.375-2.674-3.065-2.674H47.736l-7.701 6.82v5.945C40.035 50.703 39.878 50.859 39.685 50.859zM60.14 51.902h-9.527c-.193 0-.35-.157-.35-.35s.156-.35.35-.35h9.527c.193 0 .35.157.35.35S60.333 51.902 60.14 51.902z" />
  <path fill="#472b29" d="M60.14,49.477h-9.527c-0.193,0-0.35-0.157-0.35-0.35s0.156-0.35,0.35-0.35h9.527c0.193,0,0.35,0.157,0.35,0.35S60.333,49.477,60.14,49.477z" />
  <path fill="#cdcbbd" d="M48.505 51.379L48.505 46.703 43.067 46.703 43.067 52.245 47.315 52.245" />
  <path fill="#472b29" d="M47.316 52.595h-4.249c-.193 0-.35-.157-.35-.35v-5.542c0-.193.156-.35.35-.35h5.438c.193 0 .35.157.35.35v4.676c0 .193-.156.35-.35.35s-.35-.157-.35-.35v-4.326h-4.739v4.841h3.899c.193 0 .35.157.35.35S47.509 52.595 47.316 52.595zM60.14 47.053h-9.527c-.193 0-.35-.157-.35-.35s.156-.35.35-.35h9.527c.193 0 .35.157.35.35S60.333 47.053 60.14 47.053z" />
  <path fill="#cdcbbd" d="M47.82,37.515v3.91c0,1.688-1.594,3.069-3.542,3.069h-4.513" />
  <path fill="#472b29" d="M44.279,44.844h-4.513c-0.193,0-0.35-0.157-0.35-0.35s0.156-0.35,0.35-0.35h4.513c1.76,0,3.192-1.22,3.192-2.719v-3.911c0-0.193,0.156-0.35,0.35-0.35s0.35,0.157,0.35,0.35v3.911C48.17,43.31,46.425,44.844,44.279,44.844z" />
  <path fill="#e8eaca" d="M62.432,44.873c-0.002,2.368,1.46,4.609,3.974,6.089l0,0c0,1.279-0.373,2.696-0.839,3.598c-0.165,0.32,0.093,0.693,0.451,0.653c2.32-0.255,4.518-1.4,5.686-2.546h1.325c5.853,0,10.598-3.49,10.598-7.795s-4.745-7.795-10.598-7.795S62.432,40.568,62.432,44.873" />
  <path fill="#472b29" d="M65.969,55.716c-0.313,0-0.607-0.153-0.786-0.415c-0.198-0.289-0.221-0.661-0.059-0.972c0.36-0.699,0.726-1.898,0.776-3.089c-2.528-1.579-3.971-3.886-3.969-6.368c0-4.573,4.979-8.294,11.098-8.294s11.098,3.721,11.098,8.294s-4.979,8.295-11.098,8.295h-1.125c-1.202,1.099-3.414,2.277-5.831,2.543C66.038,55.714,66.003,55.716,65.969,55.716z M73.03,37.578c-5.567,0-10.098,3.272-10.098,7.294v0c-0.002,2.2,1.357,4.263,3.729,5.659c0.152,0.09,0.246,0.253,0.246,0.431c0,1.273-0.352,2.775-0.895,3.827c2.236-0.324,4.306-1.462,5.344-2.479c0.093-0.092,0.219-0.143,0.35-0.143h1.324c5.567,0,10.098-3.272,10.098-7.295C83.127,40.85,78.597,37.578,73.03,37.578z M62.432,44.872h0.01H62.432z" />
  <path fill="#472b29" d="M77.941 42.105h-2.918c-.166 0-.3-.134-.3-.3s.134-.3.3-.3h2.918c.166 0 .3.134.3.3S78.107 42.105 77.941 42.105zM73.726 42.105h-6.16c-.166 0-.3-.134-.3-.3s.134-.3.3-.3h6.16c.166 0 .3.134.3.3S73.892 42.105 73.726 42.105zM79.238 44.051h-8.105c-.166 0-.3-.134-.3-.3s.134-.3.3-.3h8.105c.166 0 .3.134.3.3S79.404 44.051 79.238 44.051zM69.835 44.051h-3.891c-.166 0-.3-.134-.3-.3s.134-.3.3-.3h3.891c.166 0 .3.134.3.3S70.001 44.051 69.835 44.051zM75.995 45.996H65.945c-.166 0-.3-.134-.3-.3s.134-.3.3-.3h10.051c.166 0 .3.134.3.3S76.161 45.996 75.995 45.996zM73.354 48.265h-5.788c-.166 0-.3-.134-.3-.3s.134-.3.3-.3h5.788c.166 0 .3.134.3.3S73.52 48.265 73.354 48.265z" />
  <g>
    <path fill="#88ae45" d="M78.982 46.358A4.042 4.042 0 1 0 78.982 54.442A4.042 4.042 0 1 0 78.982 46.358Z" />
    <path fill="#472b29" d="M78.982,54.942c-2.505,0-4.543-2.038-4.543-4.542c0-2.504,2.038-4.542,4.543-4.542s4.542,2.038,4.542,4.542C83.524,52.904,81.487,54.942,78.982,54.942z M78.982,46.857c-1.953,0-3.543,1.589-3.543,3.542s1.59,3.542,3.543,3.542s3.542-1.589,3.542-3.542S80.935,46.857,78.982,46.857z" />
  </g>
  <g>
    <path fill="#fdfcef" d="M80.72,48.773L80.72,48.773c-0.222-0.222-0.51-0.296-0.64-0.166l-2.547,2.547c-0.118,0.118-0.422,1.007-0.515,1.212c-0.009,0.021-0.005,0.045,0.011,0.061l0.028,0.028c0.021,0.021,0.053,0.027,0.081,0.015c0.23-0.104,1.085-0.394,1.201-0.509l2.547-2.547C81.016,49.282,80.941,48.994,80.72,48.773z" />
    <path fill="#472b29" d="M77.109,52.625c-0.058,0-0.115-0.022-0.158-0.065l-0.027-0.027c-0.059-0.057-0.076-0.146-0.044-0.225c0.03-0.066,0.078-0.192,0.134-0.34c0.214-0.564,0.324-0.831,0.414-0.92l2.546-2.546c0.195-0.192,0.567-0.119,0.854,0.166c0.171,0.171,0.273,0.385,0.273,0.571c0,0.113-0.038,0.211-0.109,0.282l-2.545,2.546c-0.088,0.087-0.331,0.188-0.881,0.396c-0.155,0.059-0.292,0.111-0.365,0.144C77.17,52.619,77.14,52.625,77.109,52.625z M80.255,48.692c-0.031,0-0.056,0.007-0.07,0.021l-2.546,2.546c-0.065,0.075-0.255,0.574-0.346,0.814c-0.027,0.074-0.054,0.142-0.076,0.201c0.069-0.027,0.152-0.059,0.242-0.093c0.245-0.093,0.703-0.267,0.775-0.329l2.544-2.545c0.018-0.017,0.021-0.047,0.021-0.069c0-0.08-0.049-0.222-0.187-0.359C80.483,48.748,80.342,48.692,80.255,48.692z" />
    <path fill="#fdfcef" d="M79.555 49.131L80.361 49.937" />
    <path fill="#472b29" d="M80.362,50.087c-0.038,0-0.077-0.015-0.106-0.044l-0.807-0.806c-0.059-0.059-0.059-0.153,0-0.212s0.154-0.059,0.213,0l0.807,0.806c0.059,0.059,0.059,0.153,0,0.212C80.439,50.072,80.4,50.087,80.362,50.087z" />
    <g>
      <path fill="#fdfcef" d="M77.526 51.221L78.267 51.962" />
      <path fill="#472b29" d="M78.267,52.112c-0.038,0-0.077-0.015-0.106-0.044l-0.741-0.741c-0.059-0.059-0.059-0.153,0-0.212s0.154-0.059,0.213,0l0.741,0.741c0.059,0.059,0.059,0.153,0,0.212C78.344,52.098,78.305,52.112,78.267,52.112z" />
    </g>
    <g>
      <path fill="#fdfcef" d="M77.204 52.019L77.484 52.298" />
      <path fill="#472b29" d="M77.484,52.448c-0.038,0-0.077-0.015-0.106-0.044l-0.279-0.279c-0.059-0.058-0.059-0.153,0-0.212s0.154-0.059,0.213,0l0.279,0.279c0.059,0.058,0.059,0.153,0,0.212C77.561,52.433,77.522,52.448,77.484,52.448z" />
    </g>
  </g>
  <g>
    <path fill="#fdfcef" d="M72.459,72.063c1.883,0,3.517,0,3.54,0c2.11,0,3.821-1.674,3.821-3.739c0-1.802-1.302-3.305-3.035-3.66c0.02-0.158,0.034-0.317,0.034-0.48c0-2.139-1.772-3.873-3.957-3.873c-1.29,0-2.433,0.607-3.155,1.543c-0.185-2.381-2.358-4.218-4.9-3.913c-1.859,0.223-3.397,1.629-3.739,3.431c-0.11,0.578-0.098,1.139,0.011,1.665c-0.498-0.525-1.208-0.856-1.998-0.856c-1.446,0-2.627,1.102-2.72,2.494c-0.657-0.142-1.371-0.133-2.123,0.143c-1.438,0.528-2.462,1.853-2.522,3.356c-0.085,2.133,1.657,3.889,3.818,3.889c0.164,0,0.741,0,0.874,0h7.934 M65.982,72.063h0.36" />
    <path fill="#472b29" d="M75.999,72.563h-3.54c-0.276,0-0.5-0.224-0.5-0.5s0.224-0.5,0.5-0.5h3.54c1.831,0,3.32-1.453,3.32-3.239c0-1.524-1.108-2.857-2.636-3.17c-0.255-0.052-0.428-0.292-0.396-0.551c0.017-0.138,0.029-0.277,0.029-0.419c0-1.86-1.551-3.373-3.457-3.373c-1.092,0-2.098,0.491-2.76,1.348c-0.125,0.164-0.343,0.232-0.538,0.173c-0.198-0.059-0.34-0.234-0.355-0.44c-0.079-1.019-0.565-1.944-1.37-2.604c-0.828-0.68-1.887-0.985-2.972-0.852c-1.646,0.197-3.007,1.442-3.308,3.028c-0.094,0.496-0.091,0.99,0.009,1.471c0.046,0.219-0.06,0.441-0.258,0.544c-0.197,0.104-0.439,0.064-0.595-0.099c-0.428-0.451-1.008-0.7-1.635-0.7c-1.169,0-2.145,0.891-2.221,2.028c-0.01,0.145-0.082,0.278-0.198,0.366c-0.117,0.087-0.263,0.12-0.406,0.089c-0.639-0.139-1.243-0.098-1.845,0.124c-1.262,0.463-2.145,1.631-2.195,2.906c-0.035,0.875,0.282,1.708,0.895,2.344c0.635,0.661,1.496,1.025,2.424,1.025h8.807c0.276,0,0.5,0.224,0.5,0.5s-0.224,0.5-0.5,0.5h-8.807c-1.186,0-2.331-0.485-3.145-1.332c-0.803-0.835-1.219-1.928-1.174-3.077c0.068-1.675,1.213-3.204,2.85-3.805c0.61-0.225,1.24-0.307,1.881-0.245c0.345-1.396,1.629-2.424,3.135-2.424c0.493,0,0.977,0.113,1.414,0.323c0.009-0.241,0.036-0.483,0.082-0.725c0.381-2.01,2.097-3.586,4.171-3.835c1.363-0.161,2.685,0.218,3.726,1.072c0.748,0.613,1.278,1.41,1.546,2.302c0.791-0.648,1.786-1.007,2.843-1.007c2.458,0,4.457,1.961,4.457,4.373c0,0.034-0.001,0.068-0.002,0.102c1.765,0.555,3.004,2.188,3.004,4.038C80.32,70.661,78.381,72.563,75.999,72.563z M66.341,72.563h-0.359c-0.276,0-0.5-0.224-0.5-0.5s0.224-0.5,0.5-0.5h0.359c0.276,0,0.5,0.224,0.5,0.5S66.618,72.563,66.341,72.563z" />
    <path fill="#472b29" d="M74.291,66.76c-0.018,0-0.036-0.002-0.055-0.006c-0.135-0.03-0.22-0.164-0.189-0.299c0.037-0.166,0.095-0.327,0.171-0.479c0.604-1.223,2.273-1.675,3.721-1.006c0.126,0.058,0.181,0.207,0.122,0.332c-0.058,0.125-0.208,0.181-0.331,0.122c-1.205-0.556-2.579-0.21-3.063,0.774c-0.059,0.118-0.103,0.241-0.131,0.367C74.509,66.681,74.406,66.76,74.291,66.76z" />
    <g>
      <path fill="#472b29" d="M69.133,72.563h-1.107c-0.276,0-0.5-0.224-0.5-0.5s0.224-0.5,0.5-0.5h1.107c0.276,0,0.5,0.224,0.5,0.5S69.41,72.563,69.133,72.563z" />
    </g>
  </g>
  <g>
    <path fill="#fff" d="M74.373 25.723h-10.03c-.276 0-.5-.224-.5-.5s.224-.5.5-.5h10.03c.276 0 .5.224.5.5S74.65 25.723 74.373 25.723zM77.255 25.723h-1.446c-.276 0-.5-.224-.5-.5s.224-.5.5-.5h1.446c.276 0 .5.224.5.5S77.532 25.723 77.255 25.723zM81.31 25.723h-2.546c-.276 0-.5-.224-.5-.5s.224-.5.5-.5h2.546c.276 0 .5.224.5.5S81.586 25.723 81.31 25.723zM81.31 27.587h-9.616c-.276 0-.5-.224-.5-.5s.224-.5.5-.5h9.616c.276 0 .5.224.5.5S81.586 27.587 81.31 27.587zM69.961 27.587h-.58c-.276 0-.5-.224-.5-.5s.224-.5.5-.5h.58c.276 0 .5.224.5.5S70.238 27.587 69.961 27.587zM67.585 27.587h-1.457c-.276 0-.5-.224-.5-.5s.224-.5.5-.5h1.457c.276 0 .5.224.5.5S67.862 27.587 67.585 27.587zM76.721 23.858h-5.027c-.276 0-.5-.224-.5-.5s.224-.5.5-.5h5.027c.276 0 .5.224.5.5S76.997 23.858 76.721 23.858zM76.721 21.993h-1.258c-.276 0-.5-.224-.5-.5s.224-.5.5-.5h1.258c.276 0 .5.224.5.5S76.997 21.993 76.721 21.993zM73.452 29.453h-1.758c-.276 0-.5-.224-.5-.5s.224-.5.5-.5h1.758c.276 0 .5.224.5.5S73.728 29.453 73.452 29.453z" />
  </g>
</svg>