<?xml version="1.0" encoding="utf-8"?>
<svg xmlns="http://www.w3.org/2000/svg" viewBox="0 0 100 100" width="250" height="250">
  <path fill="#c7ede6" d="M87.215,56.71C88.35,54.555,89,52.105,89,49.5c0-6.621-4.159-12.257-10.001-14.478 C78.999,35.015,79,35.008,79,35c0-11.598-9.402-21-21-21c-9.784,0-17.981,6.701-20.313,15.757C36.211,29.272,34.638,29,33,29 c-7.692,0-14.023,5.793-14.89,13.252C12.906,43.353,9,47.969,9,53.5C9,59.851,14.149,65,20.5,65c0.177,0,0.352-0.012,0.526-0.022 C21.022,65.153,21,65.324,21,65.5C21,76.822,30.178,86,41.5,86c6.437,0,12.175-2.972,15.934-7.614C59.612,80.611,62.64,82,66,82 c4.65,0,8.674-2.65,10.666-6.518C77.718,75.817,78.837,76,80,76c6.075,0,11-4.925,11-11C91,61.689,89.53,58.727,87.215,56.71z" />
  <path fill="#fdfcef" d="M83.875,63.5c0,0,3.64,0,6.125,0s4.5-2.015,4.5-4.5c0-2.333-1.782-4.229-4.055-4.455 C90.467,54.364,90.5,54.187,90.5,54c0-2.485-2.015-4.5-4.5-4.5c-1.438,0-2.703,0.686-3.527,1.736 C82.333,48.6,80.171,46.5,77.5,46.5c-2.761,0-5,2.239-5,5c0,0.446,0.077,0.87,0.187,1.282C72.045,52.005,71.086,51.5,70,51.5 c-1.781,0-3.234,1.335-3.455,3.055C66.364,54.533,66.187,54.5,66,54.5c-2.485,0-4.5,2.015-4.5,4.5s2.015,4.5,4.5,4.5s9.5,0,9.5,0 h5.375V64h3V63.5z" />
  <path fill="#472b29" d="M77.5,46c-3.033,0-5.5,2.467-5.5,5.5c0,0.016,0,0.031,0,0.047C71.398,51.192,70.71,51,70,51 c-1.831,0-3.411,1.261-3.858,3.005C66.095,54.002,66.048,54,66,54c-2.757,0-5,2.243-5,5s2.243,5,5,5h14.875 c0.276,0,0.5-0.224,0.5-0.5s-0.224-0.5-0.5-0.5H66c-2.206,0-4-1.794-4-4s1.794-4,4-4c0.117,0,0.23,0.017,0.343,0.032l0.141,0.019 c0.021,0.003,0.041,0.004,0.062,0.004c0.246,0,0.462-0.185,0.495-0.437C67.232,53.125,68.504,52,70,52 c0.885,0,1.723,0.401,2.301,1.1c0.098,0.118,0.241,0.182,0.386,0.182c0.078,0,0.156-0.018,0.228-0.056 c0.209-0.107,0.314-0.346,0.254-0.573C73.054,52.218,73,51.852,73,51.5c0-2.481,2.019-4.5,4.5-4.5 c2.381,0,4.347,1.872,4.474,4.263c0.011,0.208,0.15,0.387,0.349,0.45c0.05,0.016,0.101,0.024,0.152,0.024 c0.15,0,0.296-0.069,0.392-0.192C83.638,50.563,84.779,50,86,50c2.206,0,4,1.794,4,4c0,0.117-0.017,0.23-0.032,0.343l-0.019,0.141 c-0.016,0.134,0.022,0.268,0.106,0.373c0.084,0.105,0.207,0.172,0.34,0.185C92.451,55.247,94,56.949,94,59c0,2.206-1.794,4-4,4 h-6.125c-0.276,0-0.5,0.224-0.5,0.5s0.224,0.5,0.5,0.5H90c2.757,0,5-2.243,5-5c0-2.397-1.689-4.413-4.003-4.877 C90.999,54.082,91,54.041,91,54c0-2.757-2.243-5-5-5c-1.176,0-2.293,0.416-3.183,1.164C82.219,47.76,80.055,46,77.5,46L77.5,46z" />
  <path fill="#472b29" d="M76,53c-1.403,0-2.609,0.999-2.913,2.341C72.72,55.119,72.301,55,71.875,55 c-1.202,0-2.198,0.897-2.353,2.068C69.319,57.022,69.126,57,68.938,57c-1.529,0-2.811,1.2-2.918,2.732 C66.01,59.87,66.114,59.99,66.251,60c0.006,0,0.012,0,0.018,0c0.13,0,0.24-0.101,0.249-0.232c0.089-1.271,1.151-2.268,2.419-2.268 c0.229,0,0.47,0.042,0.738,0.127c0.022,0.007,0.045,0.01,0.067,0.01c0.055,0,0.11-0.02,0.156-0.054 C69.962,57.537,70,57.455,70,57.375c0-1.034,0.841-1.875,1.875-1.875c0.447,0,0.885,0.168,1.231,0.473 c0.047,0.041,0.106,0.063,0.165,0.063c0.032,0,0.063-0.006,0.093-0.019c0.088-0.035,0.148-0.117,0.155-0.212 C73.623,54.512,74.712,53.5,76,53.5c0.208,0,0.425,0.034,0.682,0.107c0.023,0.007,0.047,0.01,0.07,0.01 c0.109,0,0.207-0.073,0.239-0.182c0.038-0.133-0.039-0.271-0.172-0.309C76.517,53.04,76.256,53,76,53L76,53z" />
  <path fill="#472b29" d="M89.883,54.5c-1.326,0-2.508,0.897-2.874,2.182c-0.038,0.133,0.039,0.271,0.172,0.309 C87.205,56.997,87.228,57,87.25,57c0.109,0,0.209-0.072,0.24-0.182C87.795,55.748,88.779,55,89.883,55 c0.117,0,0.23,0.014,0.342,0.029c0.012,0.002,0.023,0.003,0.035,0.003c0.121,0,0.229-0.092,0.246-0.217 c0.019-0.137-0.077-0.263-0.214-0.281C90.158,54.516,90.022,54.5,89.883,54.5L89.883,54.5z" />
  <path fill="#fff" d="M37.405,80H27.5c-0.276,0-0.5-0.224-0.5-0.5s0.224-0.5,0.5-0.5h9.905c0.276,0,0.5,0.224,0.5,0.5 S37.682,80,37.405,80z" />
  <path fill="#fff" d="M40.5,80h-1c-0.276,0-0.5-0.224-0.5-0.5s0.224-0.5,0.5-0.5h1c0.276,0,0.5,0.224,0.5,0.5 S40.777,80,40.5,80z" />
  <path fill="#fff" d="M45.491,82H36.5c-0.276,0-0.5-0.224-0.5-0.5s0.224-0.5,0.5-0.5h8.991c0.276,0,0.5,0.224,0.5,0.5 S45.767,82,45.491,82z" />
  <path fill="#fff" d="M34.5,82h-1c-0.276,0-0.5-0.224-0.5-0.5s0.224-0.5,0.5-0.5h1c0.276,0,0.5,0.224,0.5,0.5 S34.777,82,34.5,82z" />
  <path fill="#fff" d="M31.5,82h-2c-0.276,0-0.5-0.224-0.5-0.5s0.224-0.5,0.5-0.5h2c0.276,0,0.5,0.224,0.5,0.5 S31.777,82,31.5,82z" />
  <path fill="#fff" d="M37.5,84h-2c-0.276,0-0.5-0.224-0.5-0.5s0.224-0.5,0.5-0.5h2c0.276,0,0.5,0.224,0.5,0.5 S37.776,84,37.5,84z" />
  <path fill="#fff" d="M40.5,75c-0.177,0-0.823,0-1,0c-0.276,0-0.5,0.224-0.5,0.5c0,0.276,0.224,0.5,0.5,0.5 c0.177,0,0.823,0,1,0c0.276,0,0.5-0.224,0.5-0.5C41,75.224,40.776,75,40.5,75z" />
  <path fill="#fff" d="M40.5,77c-0.177,0-4.823,0-5,0c-0.276,0-0.5,0.224-0.5,0.5c0,0.276,0.224,0.5,0.5,0.5 c0.177,0,4.823,0,5,0c0.276,0,0.5-0.224,0.5-0.5C41,77.224,40.776,77,40.5,77z" />
  <path fill="#fff" d="M45.5,79c-0.177,0-2.823,0-3,0c-0.276,0-0.5,0.224-0.5,0.5c0,0.276,0.224,0.5,0.5,0.5 c0.177,0,2.823,0,3,0c0.276,0,0.5-0.224,0.5-0.5C46,79.224,45.776,79,45.5,79z" />
  <g>
    <path fill="#fff" d="M69.5,24h-10c-0.276,0-0.5-0.224-0.5-0.5s0.224-0.5,0.5-0.5h10c0.276,0,0.5,0.224,0.5,0.5 S69.776,24,69.5,24z" />
    <path fill="#fff" d="M73.5,24h-2c-0.276,0-0.5-0.224-0.5-0.5s0.224-0.5,0.5-0.5h2c0.276,0,0.5,0.224,0.5,0.5 S73.776,24,73.5,24z" />
    <path fill="#fff" d="M78.5,26h-10c-0.276,0-0.5-0.224-0.5-0.5s0.224-0.5,0.5-0.5h10c0.276,0,0.5,0.224,0.5,0.5 S78.777,26,78.5,26z" />
    <path fill="#fff" d="M66.5,26h-1c-0.276,0-0.5-0.224-0.5-0.5s0.224-0.5,0.5-0.5h1c0.276,0,0.5,0.224,0.5,0.5 S66.776,26,66.5,26z" />
    <path fill="#fff" d="M63.375,26H61.5c-0.276,0-0.5-0.224-0.5-0.5s0.224-0.5,0.5-0.5h1.875c0.276,0,0.5,0.224,0.5,0.5 S63.651,26,63.375,26z" />
    <path fill="#fff" d="M72.5,22h-5c-0.276,0-0.5-0.224-0.5-0.5s0.224-0.5,0.5-0.5h5c0.276,0,0.5,0.224,0.5,0.5 S72.777,22,72.5,22z" />
    <path fill="#fff" d="M69.5,28h-2c-0.276,0-0.5-0.224-0.5-0.5s0.224-0.5,0.5-0.5h2c0.276,0,0.5,0.224,0.5,0.5 S69.776,28,69.5,28z" />
  </g>
  <g>
    <path fill="#edf7f5" d="M77.599,55.78c0-7.609-8.225-13.777-18.37-13.777s-18.37,6.168-18.37,13.777 s8.225,13.777,18.37,13.777h2.296c1.953,1.953,5.568,3.907,9.432,4.446c0.786,0.11,1.384-0.701,1.053-1.422 c-0.734-1.597-1.299-3.923-1.299-6.038l0,0C75.067,63.927,77.602,59.966,77.599,55.78" />
    <path fill="#472b29" d="M71.095,74.713c-0.078,0-0.156-0.005-0.234-0.016c-3.553-0.496-7.29-2.227-9.619-4.44h-2.013 c-10.515,0-19.069-6.494-19.069-14.477s8.555-14.477,19.069-14.477c10.516,0,19.07,6.494,19.07,14.477v-0.001 c0.004,4.348-2.499,8.393-6.882,11.152c0.061,1.775,0.529,3.836,1.229,5.359c0.261,0.567,0.19,1.232-0.184,1.734 C72.137,74.461,71.628,74.713,71.095,74.713z M59.229,42.703c-9.743,0-17.669,5.866-17.669,13.077s7.926,13.077,17.669,13.077 h2.587l0.205,0.205c1.728,1.728,5.191,3.711,9.033,4.248c0.16,0.024,0.245-0.067,0.285-0.122c0.033-0.045,0.104-0.165,0.035-0.314 c-0.842-1.831-1.364-4.257-1.364-6.33v-0.396l0.34-0.204c4.166-2.502,6.553-6.206,6.549-10.163V55.78 C76.898,48.569,68.972,42.703,59.229,42.703z" />
  </g>
  <g>
    <path fill="#fff" d="M24,49.149c-0.004,5.047,3.112,9.821,8.468,12.975l0,0c0,2.726-0.794,5.744-1.787,7.666 c-0.352,0.682,0.199,1.476,0.962,1.392c4.943-0.543,9.627-2.984,12.116-5.425h2.823c12.471,0,22.581-7.436,22.581-16.608 s-10.11-16.608-22.581-16.608S24,39.977,24,49.149" />
    <path fill="#472b29" d="M31.536,71.888c-0.546,0-1.06-0.267-1.372-0.722c-0.346-0.503-0.386-1.154-0.105-1.697 c0.968-1.874,1.635-4.618,1.703-6.952c-5.388-3.298-8.466-8.151-8.462-13.368c0-9.543,10.444-17.308,23.281-17.308 s23.281,7.764,23.281,17.308c0,9.544-10.444,17.308-23.281,17.308H44.04c-2.487,2.326-7.181,4.855-12.321,5.42 C31.658,71.885,31.597,71.888,31.536,71.888z M46.581,33.241c-12.065,0-21.881,7.136-21.881,15.908v0 c-0.004,4.821,2.957,9.33,8.123,12.371l0.345,0.203v0.4c0,2.657-0.732,5.792-1.865,7.987c-0.062,0.119-0.017,0.216,0.016,0.262 c0.033,0.049,0.108,0.127,0.248,0.113c4.955-0.545,9.448-3.019,11.702-5.229l0.204-0.2h3.108c12.065,0,21.881-7.136,21.881-15.908 C68.462,40.377,58.646,33.241,46.581,33.241z" />
  </g>
  <g>
    <path fill="#472b29" d="M68.911,71.25c-0.027,0-0.055-0.004-0.081-0.013c-3.143-1.076-5.196-2.481-7.053-4.833 c-0.947,0.176-3.139,0.529-6.283-0.017c-0.136-0.024-0.227-0.153-0.203-0.289c0.022-0.135,0.146-0.228,0.289-0.204 c3.231,0.561,5.351,0.161,6.254-0.01c0.091-0.017,0.187,0.018,0.244,0.092c1.711,2.206,3.588,3.564,6.388,4.6 c-0.836-2.144-0.881-3.869-0.948-6.384c-0.003-0.121,0.08-0.237,0.198-0.262c2.338-0.494,5.297-2.722,6.428-6.026 c0.702-2.049,0.913-5.229-2.064-8.742c-0.09-0.105-0.076-0.263,0.028-0.352c0.106-0.089,0.265-0.076,0.353,0.029 c3.13,3.693,2.9,7.056,2.157,9.227c-1.159,3.385-4.152,5.702-6.595,6.307c0.071,2.642,0.138,4.278,1.118,6.528 c0.039,0.091,0.021,0.197-0.046,0.269C69.047,71.222,68.979,71.25,68.911,71.25z" />
  </g>
  <g>
    <path fill="#472b29" d="M33.31,59.15c-0.049,0-0.098-0.014-0.141-0.043c-3.816-2.593-5.919-6.072-5.919-9.796 c0-5.685,5.121-10.833,12.743-12.81c0.131-0.036,0.27,0.046,0.305,0.179c0.034,0.134-0.046,0.27-0.18,0.305 c-7.397,1.919-12.368,6.873-12.368,12.326c0,3.553,2.024,6.885,5.7,9.382c0.114,0.078,0.144,0.233,0.066,0.347 C33.468,59.112,33.39,59.15,33.31,59.15z" />
  </g>
  <g>
    <path fill="#472b29" d="M34.945,67.25c-0.068,0-0.135-0.028-0.184-0.08c-0.067-0.073-0.085-0.178-0.046-0.269 c0.94-2.175,0.981-3.741,1.051-6.336l0.25-0.008l0.25,0.007c-0.063,2.375-0.106,3.999-0.877,6.009 c2.487-0.952,4.371-2.376,6.055-4.563c0.058-0.074,0.151-0.111,0.245-0.093c0.81,0.155,1.052,0.185,1.924,0.27 c0.137,0.013,0.237,0.135,0.225,0.273c-0.014,0.137-0.124,0.236-0.273,0.225c-0.835-0.081-1.104-0.113-1.818-0.247 c-1.818,2.32-3.957,3.847-6.719,4.801C35,67.246,34.973,67.25,34.945,67.25z" />
  </g>
  <g>
    <path fill="#472b29" d="M46.813,62.974c-0.138,0-0.25-0.112-0.25-0.25s0.112-0.25,0.25-0.25 c5.51,0,10.75-1.649,14.377-4.524c0.108-0.085,0.265-0.068,0.352,0.041c0.085,0.108,0.067,0.265-0.041,0.351 C57.786,61.285,52.433,62.974,46.813,62.974z" />
  </g>
  <g>
    <path fill="#472b29" d="M63.156,56.419c-0.051,0-0.102-0.015-0.146-0.047c-0.112-0.08-0.138-0.237-0.058-0.349 c1.448-2.025,2.214-4.346,2.214-6.712c0-3.024-1.201-5.868-3.475-8.224c-0.096-0.099-0.093-0.258,0.006-0.354 c0.101-0.096,0.259-0.093,0.354,0.006c2.331,2.416,3.615,5.46,3.615,8.571c0,2.471-0.798,4.893-2.308,7.003 C63.311,56.383,63.234,56.419,63.156,56.419z" />
  </g>
  <g>
    <path fill="#472b29" d="M59.097,39.212c-0.042,0-0.085-0.011-0.124-0.033c-0.732-0.42-1.515-0.804-2.326-1.142 c-0.127-0.053-0.188-0.199-0.134-0.327c0.053-0.128,0.197-0.188,0.327-0.135c0.829,0.346,1.631,0.74,2.381,1.17 c0.12,0.069,0.161,0.221,0.093,0.341C59.268,39.167,59.184,39.212,59.097,39.212z" />
  </g>
  <g>
    <path fill="#472b29" d="M55.346,37.472c-0.031,0-0.063-0.006-0.095-0.019c-2.637-1.076-5.476-1.622-8.438-1.622 c-0.833,0-1.67,0.045-2.489,0.133c-0.135,0.015-0.26-0.085-0.275-0.222c-0.015-0.137,0.085-0.261,0.223-0.275 c0.836-0.09,1.691-0.136,2.542-0.136c3.027,0,5.931,0.558,8.628,1.659c0.128,0.052,0.188,0.198,0.137,0.326 C55.538,37.414,55.444,37.472,55.346,37.472z" />
  </g>
  <g>
    <path fill="#fdfcef" d="M19.5,42.5c0,0-1.567,0-3.5,0s-3.5-1.567-3.5-3.5c0-1.781,1.335-3.234,3.055-3.455 C15.527,35.366,15.5,35.187,15.5,35c0-1.933,1.567-3.5,3.5-3.5c1.032,0,1.95,0.455,2.59,1.165c0.384-1.808,1.987-3.165,3.91-3.165 c2.209,0,4,1.791,4,4c0,0.191-0.03,0.374-0.056,0.558C29.872,33.714,30.408,33.5,31,33.5c1.228,0,2.245,0.887,2.455,2.055 C33.634,35.527,33.813,35.5,34,35.5c1.933,0,3.5,1.567,3.5,3.5s-1.567,3.5-3.5,3.5s-7.5,0-7.5,0V43h-7V42.5z" />
    <path fill="#472b29" d="M17.75,38c0.138,0,0.25-0.112,0.25-0.25c0-1.223-0.995-2.218-2.218-2.218 c-0.034,0.009-0.737-0.001-1.244,0.136c-0.133,0.036-0.212,0.173-0.176,0.306c0.036,0.134,0.173,0.213,0.306,0.176 c0.444-0.12,1.1-0.12,1.113-0.118c0.948,0,1.719,0.771,1.719,1.718C17.5,37.888,17.612,38,17.75,38z" />
    <circle cx="24.5" cy="42.5" r=".5" fill="#472b29" />
    <path fill="#472b29" d="M16,43h3.5c0.276,0,0.5-0.224,0.5-0.5S19.776,42,19.5,42H16c-1.654,0-3-1.346-3-3 c0-1.496,1.125-2.768,2.618-2.959c0.134-0.018,0.255-0.088,0.336-0.196s0.115-0.244,0.094-0.377C16.025,35.314,16,35.16,16,35 c0-1.654,1.346-3,3-3c0.85,0,1.638,0.355,2.219,1c0.125,0.139,0.321,0.198,0.5,0.148c0.182-0.049,0.321-0.195,0.36-0.379 C22.42,31.165,23.859,30,25.5,30c1.93,0,3.5,1.57,3.5,3.5c0,0.143-0.021,0.28-0.041,0.418c-0.029,0.203,0.063,0.438,0.242,0.54 c0.179,0.102,0.396,0.118,0.556-0.01C30.122,34.155,30.551,34,31,34c0.966,0,1.792,0.691,1.963,1.644 c0.048,0.267,0.296,0.446,0.569,0.405C33.686,36.025,33.84,36,34,36c1.654,0,3,1.346,3,3s-1.346,3-3,3h-7.5 c-0.276,0-0.5,0.224-0.5,0.5s0.224,0.5,0.5,0.5H34c2.206,0,4-1.794,4-4s-1.794-4-4-4c-0.059,0-0.116,0.002-0.174,0.006 C33.412,33.82,32.289,33,31,33c-0.349,0-0.689,0.061-1.011,0.18C29.824,30.847,27.874,29,25.5,29 c-1.831,0-3.466,1.127-4.153,2.774C20.667,31.276,19.845,31,19,31c-2.206,0-4,1.794-4,4c0,0.048,0.001,0.095,0.004,0.142 C13.261,35.59,12,37.169,12,39C12,41.206,13.794,43,16,43z" />
    <path fill="#472b29" d="M21.5,42c0.159,0,0.841,0,1,0c0.276,0,0.5,0.224,0.5,0.5c0,0.276-0.224,0.5-0.5,0.5 c-0.159,0-0.841,0-1,0c-0.276,0-0.5-0.224-0.5-0.5C21,42.224,21.224,42,21.5,42z" />
  </g>
</svg>