<?xml version="1.0" encoding="utf-8"?>
<svg xmlns="http://www.w3.org/2000/svg" viewBox="0 0 100 100" width="250" height="250">
  <path fill="#c7ede6" d="M87.215,56.71C88.35,54.555,89,52.105,89,49.5c0-6.621-4.159-12.257-10.001-14.478 C78.999,35.015,79,35.008,79,35c0-11.598-9.402-21-21-21c-9.784,0-17.981,6.701-20.313,15.757C36.211,29.272,34.638,29,33,29 c-7.692,0-14.023,5.793-14.89,13.252C12.906,43.353,9,47.969,9,53.5C9,59.851,14.149,65,20.5,65c0.177,0,0.352-0.012,0.526-0.022 C21.022,65.153,21,65.324,21,65.5C21,76.822,30.178,86,41.5,86c6.437,0,12.175-2.972,15.934-7.614C59.612,80.611,62.64,82,66,82 c4.65,0,8.674-2.65,10.666-6.518C77.718,75.817,78.837,76,80,76c6.075,0,11-4.925,11-11C91,61.689,89.53,58.727,87.215,56.71z" />
  <path fill="#fdfcef" d="M20.5,55.5V56h-3v-0.5c0,0-4.242,0-5.5,0c-2.485,0-4.5-2.015-4.5-4.5 c0-2.333,1.782-4.229,4.055-4.455C11.533,46.364,11.5,46.187,11.5,46c0-2.485,2.015-4.5,4.5-4.5c1.438,0,2.703,0.686,3.527,1.736 C19.667,40.6,21.829,38.5,24.5,38.5c2.761,0,5,2.239,5,5c0,0.446-0.077,0.87-0.187,1.282c0.642-0.777,1.6-1.282,2.687-1.282 c1.781,0,3.234,1.335,3.455,3.055C35.636,46.533,35.813,46.5,36,46.5c2.485,0,4.5,2.015,4.5,4.5s-2.015,4.5-4.5,4.5s-9.5,0-9.5,0 H20.5z" />
  <path fill="#472b29" d="M24.5,38c3.033,0,5.5,2.467,5.5,5.5c0,0.016,0,0.031,0,0.047C30.602,43.192,31.29,43,32,43 c1.831,0,3.411,1.261,3.858,3.005C35.905,46.002,35.952,46,36,46c2.757,0,5,2.243,5,5s-2.243,5-5,5H20.5 c-0.276,0-0.5-0.224-0.5-0.5s0.224-0.5,0.5-0.5H36c2.206,0,4-1.794,4-4s-1.794-4-4-4c-0.117,0-0.23,0.017-0.343,0.032 l-0.141,0.019c-0.021,0.003-0.041,0.004-0.062,0.004c-0.246,0-0.462-0.185-0.495-0.437C34.768,45.125,33.496,44,32,44 c-0.885,0-1.723,0.401-2.301,1.1c-0.098,0.118-0.241,0.182-0.386,0.182c-0.078,0-0.156-0.018-0.228-0.056 c-0.209-0.107-0.314-0.346-0.254-0.573C28.946,44.218,29,43.852,29,43.5c0-2.481-2.019-4.5-4.5-4.5 c-2.381,0-4.347,1.872-4.474,4.263c-0.011,0.208-0.15,0.387-0.349,0.45c-0.05,0.016-0.101,0.024-0.152,0.024 c-0.15,0-0.296-0.069-0.392-0.192C18.362,42.563,17.221,42,16,42c-2.206,0-4,1.794-4,4c0,0.117,0.017,0.23,0.032,0.343 l0.019,0.141c0.016,0.134-0.022,0.268-0.106,0.373c-0.084,0.105-0.207,0.172-0.34,0.185C9.549,47.247,8,48.949,8,51 c0,2.206,1.794,4,4,4h5.5c0.276,0,0.5,0.224,0.5,0.5S17.776,56,17.5,56H12c-2.757,0-5-2.243-5-5c0-2.397,1.689-4.413,4.003-4.877 C11.001,46.082,11,46.041,11,46c0-2.757,2.243-5,5-5c1.176,0,2.293,0.416,3.183,1.164C19.781,39.76,21.945,38,24.5,38L24.5,38z" />
  <path fill="#472b29" d="M26 45c1.403 0 2.609.999 2.913 2.341C29.28 47.119 29.699 47 30.125 47c1.202 0 2.198.897 2.353 2.068C32.681 49.022 32.874 49 33.063 49c1.529 0 2.811 1.2 2.918 2.732C35.99 51.87 35.886 51.99 35.749 52c-.006 0-.012 0-.018 0-.13 0-.24-.101-.249-.232-.089-1.271-1.151-2.268-2.419-2.268-.229 0-.47.042-.738.127-.022.007-.045.01-.067.01-.055 0-.11-.02-.156-.054C32.038 49.537 32 49.455 32 49.375c0-1.034-.841-1.875-1.875-1.875-.447 0-.885.168-1.231.473-.047.041-.106.063-.165.063-.032 0-.063-.006-.093-.019-.088-.035-.148-.117-.155-.212C28.377 46.512 27.288 45.5 26 45.5c-.208 0-.425.034-.682.107-.023.007-.047.01-.07.01-.109 0-.207-.073-.239-.182-.038-.133.039-.271.172-.309C25.483 45.04 25.744 45 26 45L26 45zM12.117 46.5c1.326 0 2.508.897 2.874 2.182.038.133-.039.271-.172.309C14.795 48.997 14.772 49 14.75 49c-.109 0-.209-.072-.24-.182C14.205 47.748 13.221 47 12.117 47c-.117 0-.23.014-.342.029-.012.002-.023.003-.035.003-.121 0-.229-.092-.246-.217-.019-.137.077-.263.214-.281C11.842 46.516 11.978 46.5 12.117 46.5L12.117 46.5z" />
  <path fill="#fff" d="M33.5 78h-10c-.276 0-.5-.224-.5-.5s.224-.5.5-.5h10c.276 0 .5.224.5.5S33.777 78 33.5 78zM36.5 78h-1c-.276 0-.5-.224-.5-.5s.224-.5.5-.5h1c.276 0 .5.224.5.5S36.777 78 36.5 78zM41.491 80H32.5c-.276 0-.5-.224-.5-.5s.224-.5.5-.5h8.991c.276 0 .5.224.5.5S41.767 80 41.491 80zM30.5 80h-1c-.276 0-.5-.224-.5-.5s.224-.5.5-.5h1c.276 0 .5.224.5.5S30.777 80 30.5 80zM27.5 80h-2c-.276 0-.5-.224-.5-.5s.224-.5.5-.5h2c.276 0 .5.224.5.5S27.777 80 27.5 80zM33.5 82h-2c-.276 0-.5-.224-.5-.5s.224-.5.5-.5h2c.276 0 .5.224.5.5S33.776 82 33.5 82zM36.5 73c-.177 0-.823 0-1 0-.276 0-.5.224-.5.5 0 .276.224.5.5.5.177 0 .823 0 1 0 .276 0 .5-.224.5-.5C37 73.224 36.776 73 36.5 73zM36.5 75c-.177 0-4.823 0-5 0-.276 0-.5.224-.5.5 0 .276.224.5.5.5.177 0 4.823 0 5 0 .276 0 .5-.224.5-.5C37 75.224 36.776 75 36.5 75zM41.5 77c-.177 0-2.823 0-3 0-.276 0-.5.224-.5.5 0 .276.224.5.5.5.177 0 2.823 0 3 0 .276 0 .5-.224.5-.5C42 77.224 41.776 77 41.5 77zM70.5 22h-10c-.276 0-.5-.224-.5-.5s.224-.5.5-.5h10c.276 0 .5.224.5.5S70.776 22 70.5 22zM74.5 22h-2c-.276 0-.5-.224-.5-.5s.224-.5.5-.5h2c.276 0 .5.224.5.5S74.776 22 74.5 22zM79.5 24h-10c-.276 0-.5-.224-.5-.5s.224-.5.5-.5h10c.276 0 .5.224.5.5S79.777 24 79.5 24zM67.5 24h-1c-.276 0-.5-.224-.5-.5s.224-.5.5-.5h1c.276 0 .5.224.5.5S67.776 24 67.5 24zM64.47 24H62.5c-.276 0-.5-.224-.5-.5s.224-.5.5-.5h1.97c.276 0 .5.224.5.5S64.746 24 64.47 24zM73.5 20h-5c-.276 0-.5-.224-.5-.5s.224-.5.5-.5h5c.276 0 .5.224.5.5S73.777 20 73.5 20zM70.5 26h-2c-.276 0-.5-.224-.5-.5s.224-.5.5-.5h2c.276 0 .5.224.5.5S70.776 26 70.5 26z" />
  <g>
    <path fill="#fdfcef" d="M84.5,57.5c0,0,1.567,0,3.5,0s3.5-1.567,3.5-3.5c0-1.781-1.335-3.234-3.055-3.455 C88.473,50.366,88.5,50.187,88.5,50c0-1.933-1.567-3.5-3.5-3.5c-1.032,0-1.95,0.455-2.59,1.165 c-0.384-1.808-1.987-3.165-3.91-3.165c-2.209,0-4,1.791-4,4c0,0.191,0.03,0.374,0.056,0.558C74.128,48.714,73.592,48.5,73,48.5 c-1.228,0-2.245,0.887-2.455,2.055C70.366,50.527,70.187,50.5,70,50.5c-1.933,0-3.5,1.567-3.5,3.5s1.567,3.5,3.5,3.5s7.5,0,7.5,0 V58h7V57.5z" />
    <path fill="#472b29" d="M86.25 53C86.112 53 86 52.888 86 52.75c0-1.223.995-2.218 2.218-2.218.034.009.737-.001 1.244.136.133.036.212.173.176.306-.036.134-.173.213-.306.176-.444-.12-1.1-.12-1.113-.118-.948 0-1.719.771-1.719 1.718C86.5 52.888 86.388 53 86.25 53zM79.5 57A.5.5 0 1 0 79.5 58 .5.5 0 1 0 79.5 57z" />
    <path fill="#472b29" d="M88,58h-3.5c-0.276,0-0.5-0.224-0.5-0.5s0.224-0.5,0.5-0.5H88c1.654,0,3-1.346,3-3 c0-1.496-1.125-2.768-2.618-2.959c-0.134-0.018-0.255-0.088-0.336-0.196s-0.115-0.244-0.094-0.377C87.975,50.314,88,50.16,88,50 c0-1.654-1.346-3-3-3c-0.85,0-1.638,0.355-2.219,1c-0.125,0.139-0.321,0.198-0.5,0.148c-0.182-0.049-0.321-0.195-0.36-0.379 C81.58,46.165,80.141,45,78.5,45c-1.93,0-3.5,1.57-3.5,3.5c0,0.143,0.021,0.28,0.041,0.418c0.029,0.203-0.063,0.438-0.242,0.54 c-0.179,0.102-0.396,0.118-0.556-0.01C73.878,49.155,73.449,49,73,49c-0.966,0-1.792,0.691-1.963,1.644 c-0.048,0.267-0.296,0.446-0.569,0.405C70.314,51.025,70.16,51,70,51c-1.654,0-3,1.346-3,3s1.346,3,3,3h7.5 c0.276,0,0.5,0.224,0.5,0.5S77.776,58,77.5,58H70c-2.206,0-4-1.794-4-4s1.794-4,4-4c0.059,0,0.116,0.002,0.174,0.006 C70.588,48.82,71.711,48,73,48c0.349,0,0.689,0.061,1.011,0.18C74.176,45.847,76.126,44,78.5,44c1.831,0,3.466,1.127,4.153,2.774 C83.333,46.276,84.155,46,85,46c2.206,0,4,1.794,4,4c0,0.048-0.001,0.095-0.004,0.142C90.739,50.59,92,52.169,92,54 C92,56.206,90.206,58,88,58z" />
    <path fill="#472b29" d="M82.5,57c-0.159,0-0.841,0-1,0c-0.276,0-0.5,0.224-0.5,0.5c0,0.276,0.224,0.5,0.5,0.5 c0.159,0,0.841,0,1,0c0.276,0,0.5-0.224,0.5-0.5C83,57.224,82.776,57,82.5,57z" />
  </g>
  <g>
    <path fill="#48bed8" d="M46.2,59.8v-5.945c0-3.118,2.536-5.654,5.654-5.654h3.291c3.118,0,5.654,2.536,5.654,5.654V59.8 H46.2z" />
    <path fill="#472b29" d="M55.146,48.9c2.732,0,4.954,2.223,4.954,4.954V59.1H46.9v-5.246c0-2.731,2.222-4.954,4.954-4.954 H55.146 M55.146,47.5h-3.292c-3.509,0-6.354,2.845-6.354,6.354V60.5h16v-6.646C61.5,50.345,58.655,47.5,55.146,47.5L55.146,47.5z" />
  </g>
  <g>
    <path fill="#472b29" d="M49.5,60.5c-0.276,0-0.5-0.224-0.5-0.5v-6.5c0-0.276,0.224-0.5,0.5-0.5s0.5,0.224,0.5,0.5V60 C50,60.276,49.776,60.5,49.5,60.5z" />
  </g>
  <g>
    <path fill="#472b29" d="M57.5,60.5c-0.276,0-0.5-0.224-0.5-0.5v-6.5c0-0.276,0.224-0.5,0.5-0.5s0.5,0.224,0.5,0.5V60 C58,60.276,57.776,60.5,57.5,60.5z" />
  </g>
  <g>
    <path fill="#fddbbc" d="M53.5 38.7A4.8 4.8 0 1 0 53.5 48.3A4.8 4.8 0 1 0 53.5 38.7Z" />
    <path fill="#472b29" d="M53.5,39.4c2.261,0,4.1,1.839,4.1,4.1s-1.839,4.1-4.1,4.1s-4.1-1.839-4.1-4.1 S51.239,39.4,53.5,39.4 M53.5,38c-3.038,0-5.5,2.462-5.5,5.5s2.462,5.5,5.5,5.5s5.5-2.462,5.5-5.5S56.538,38,53.5,38L53.5,38z" />
  </g>
  <g>
    <path fill="#472b29" d="M53.5,71c-0.276,0-0.5-0.224-0.5-0.5v-7c0-0.276,0.224-0.5,0.5-0.5s0.5,0.224,0.5,0.5v7 C54,70.776,53.776,71,53.5,71z" />
  </g>
  <g>
    <path fill="#a1d3a2" d="M34 62.7A3.3 3.3 0 1 0 34 69.3A3.3 3.3 0 1 0 34 62.7Z" />
    <path fill="#472b29" d="M34,63.4c1.434,0,2.6,1.167,2.6,2.6s-1.166,2.6-2.6,2.6s-2.6-1.167-2.6-2.6S32.566,63.4,34,63.4 M34,62c-2.209,0-4,1.791-4,4s1.791,4,4,4s4-1.791,4-4S36.209,62,34,62L34,62z" />
  </g>
  <g>
    <path fill="#a1d3a2" d="M54 68.7A3.3 3.3 0 1 0 54 75.3A3.3 3.3 0 1 0 54 68.7Z" />
    <path fill="#472b29" d="M54,69.4c1.434,0,2.6,1.167,2.6,2.6s-1.166,2.6-2.6,2.6s-2.6-1.167-2.6-2.6S52.566,69.4,54,69.4 M54,68c-2.209,0-4,1.791-4,4s1.791,4,4,4s4-1.791,4-4S56.209,68,54,68L54,68z" />
  </g>
  <g>
    <path fill="#a1d3a2" d="M73 62.7A3.3 3.3 0 1 0 73 69.3A3.3 3.3 0 1 0 73 62.7Z" />
    <path fill="#472b29" d="M73,63.4c1.434,0,2.6,1.167,2.6,2.6s-1.166,2.6-2.6,2.6s-2.6-1.167-2.6-2.6S71.566,63.4,73,63.4 M73,62c-2.209,0-4,1.791-4,4s1.791,4,4,4s4-1.791,4-4S75.209,62,73,62L73,62z" />
  </g>
  <g>
    <path fill="#472b29" d="M36.532,63.925c-0.128,0-0.256-0.049-0.354-0.146c-0.195-0.195-0.195-0.512,0-0.707l4.898-4.898 c0.195-0.196,0.536-0.217,0.731-0.024c0.194,0.195,0.219,0.488,0.023,0.684l-4.946,4.946C36.788,63.876,36.66,63.925,36.532,63.925 z" />
  </g>
  <g>
    <path fill="#472b29" d="M69.957,63.925c-0.128,0-0.256-0.049-0.354-0.146l-4.15-4.15c-0.194-0.194-0.216-0.529-0.022-0.725 c0.192-0.194,0.485-0.219,0.685-0.026l4.195,4.194c0.195,0.195,0.195,0.512,0,0.707C70.213,63.876,70.085,63.925,69.957,63.925z" />
  </g>
  <g>
    <path fill="#472b29" d="M53.5,36c-0.276,0-0.5-0.224-0.5-0.5v-6.954c0-0.276,0.224-0.522,0.5-0.522s0.5,0.2,0.5,0.477v7 C54,35.776,53.776,36,53.5,36z" />
  </g>
  <g>
    <path fill="#a1d3a2" d="M73 29.7A3.3 3.3 0 1 0 73 36.3A3.3 3.3 0 1 0 73 29.7Z" />
    <path fill="#472b29" d="M73,30.4c1.434,0,2.6,1.167,2.6,2.6s-1.166,2.6-2.6,2.6s-2.6-1.167-2.6-2.6S71.566,30.4,73,30.4 M73,29c-2.209,0-4,1.791-4,4s1.791,4,4,4s4-1.791,4-4S75.209,29,73,29L73,29z" />
  </g>
  <g>
    <path fill="#a1d3a2" d="M54 22.7A3.3 3.3 0 1 0 54 29.3A3.3 3.3 0 1 0 54 22.7Z" />
    <path fill="#472b29" d="M54,23.4c1.434,0,2.6,1.167,2.6,2.6s-1.166,2.6-2.6,2.6s-2.6-1.167-2.6-2.6S52.566,23.4,54,23.4 M54,22c-2.209,0-4,1.791-4,4s1.791,4,4,4s4-1.791,4-4S56.209,22,54,22L54,22z" />
  </g>
  <g>
    <path fill="#a1d3a2" d="M34 29.7A3.3 3.3 0 1 0 34 36.3A3.3 3.3 0 1 0 34 29.7Z" />
    <path fill="#472b29" d="M34,30.4c1.434,0,2.6,1.167,2.6,2.6s-1.166,2.6-2.6,2.6s-2.6-1.167-2.6-2.6S32.566,30.4,34,30.4 M34,29c-2.209,0-4,1.791-4,4s1.791,4,4,4s4-1.791,4-4S36.209,29,34,29L34,29z" />
  </g>
  <g>
    <path fill="#472b29" d="M65.533,41.465c-0.126,0-0.25-0.044-0.342-0.135c-0.194-0.195-0.219-0.488-0.023-0.684l4.946-4.946 c0.195-0.195,0.512-0.195,0.707,0s0.195,0.512,0,0.707l-4.898,4.898C65.819,41.409,65.675,41.465,65.533,41.465z" />
  </g>
  <g>
    <path fill="#472b29" d="M41.205,40.734c-0.114,0-0.228-0.043-0.32-0.133l-4.195-4.194c-0.195-0.195-0.195-0.512,0-0.707 s0.512-0.195,0.707,0l4.15,4.15c0.194,0.194,0.216,0.529,0.022,0.725C41.467,40.68,41.336,40.734,41.205,40.734z" />
  </g>
</svg>