<?xml version="1.0" encoding="utf-8"?>
<svg xmlns="http://www.w3.org/2000/svg" viewBox="0 0 100 100" width="250" height="250">
  <path fill="#c8ede6" d="M87.234,55.551c0.3-0.616,0.566-1.264,0.796-1.943c2.633-7.77-1.349-17.078-9.733-19.325 C77.391,22.9,69.391,15.09,60.356,13.758c-10.341-1.525-19.814,5.044-22.966,15.485c-3.799-1.346-7.501-1.182-10.99,0.857 c-1.583,0.732-3.031,1.812-4.33,3.233c-1.907,2.086-3.147,4.719-3.652,7.495c-0.748,0.118-1.483,0.236-2.176,0.484 c-4.04,1.449-6.589,4.431-7.288,8.923c-0.435,2.797,0.443,5.587,0.933,6.714c1.935,4.455,6.422,6.98,10.981,6.312 c0.227-0.033,0.557,0.069,0.752,0.233c0.241,7.12,3.698,13.417,8.884,17.014c8.321,5.772,19.027,3.994,25.781-3.921 c2.894,2.96,6.338,4.398,10.384,3.876c4.023-0.519,7.147-2.739,9.426-6.349c1.053,0.283,2.051,0.691,3.083,0.804 c4.042,0.442,7.297-1.184,9.732-4.8c0.083-0.124,0.203-0.219,0.306-0.328c0.348-0.798,0.696-1.596,1.044-2.394 c0.155-1.211,0.429-2.423,0.443-3.632C90.742,60.508,89.411,57.54,87.234,55.551z" />
  <path fill="#fdfcef" d="M69.507,34.423c0,0-11.691,0-11.762,0c-2.7,0-4.888-2.189-4.888-4.889 c0-2.355,1.666-4.321,3.884-4.784c-0.026-0.206-0.043-0.415-0.043-0.628c0-2.796,2.267-5.063,5.063-5.063 c1.651,0,3.113,0.794,4.037,2.017c0.236-3.113,3.017-5.514,6.27-5.116c2.379,0.291,4.346,2.13,4.784,4.486 c0.14,0.756,0.126,1.489-0.014,2.177c0.638-0.687,1.546-1.119,2.557-1.119c1.85,0,3.361,1.441,3.48,3.261 c0.84-0.186,1.754-0.174,2.717,0.188c1.84,0.691,3.15,2.423,3.227,4.387c0.109,2.789-2.12,5.085-4.885,5.085 c-0.21,0-0.948,0-1.118,0H72.665" />
  <path fill="#472b29" d="M57.745,34.923h11.762c0.276,0,0.5-0.224,0.5-0.5s-0.224-0.5-0.5-0.5H57.745 c-2.42,0-4.389-1.969-4.389-4.389c0-2.066,1.466-3.873,3.486-4.295c0.255-0.053,0.426-0.293,0.394-0.552 c-0.023-0.186-0.039-0.374-0.039-0.565c0-2.517,2.047-4.563,4.562-4.563c1.438,0,2.765,0.663,3.638,1.818 c0.125,0.166,0.338,0.237,0.54,0.178c0.199-0.059,0.342-0.234,0.357-0.441c0.104-1.377,0.779-2.671,1.85-3.549 c1.083-0.888,2.456-1.282,3.86-1.109c2.166,0.266,3.956,1.943,4.353,4.081c0.124,0.667,0.12,1.335-0.013,1.986 c-0.044,0.22,0.062,0.442,0.262,0.544c0.2,0.104,0.443,0.06,0.595-0.104c0.575-0.618,1.353-0.959,2.19-0.959 c1.569,0,2.878,1.228,2.981,2.794c0.01,0.146,0.082,0.279,0.199,0.366c0.117,0.089,0.268,0.12,0.408,0.089 c0.841-0.185,1.637-0.132,2.433,0.167c1.669,0.627,2.835,2.209,2.903,3.938c0.047,1.207-0.387,2.35-1.221,3.218 c-0.835,0.869-1.959,1.348-3.164,1.348H72.661c-0.276,0-0.5,0.224-0.5,0.5s0.224,0.5,0.5,0.5h11.271 c1.479,0,2.858-0.588,3.884-1.654c1.025-1.066,1.558-2.469,1.5-3.95c-0.083-2.126-1.51-4.069-3.55-4.835 c-0.8-0.301-1.626-0.398-2.468-0.299c-0.377-1.822-1.998-3.182-3.905-3.182c-0.684,0-1.354,0.18-1.944,0.51 c0-0.386-0.035-0.772-0.106-1.159c-0.477-2.562-2.621-4.573-5.215-4.891c-1.679-0.205-3.32,0.266-4.616,1.328 c-1.003,0.823-1.716,1.951-2.038,3.193c-1.012-0.916-2.319-1.426-3.714-1.426c-3.067,0-5.562,2.496-5.562,5.563 c0,0.083,0.002,0.166,0.007,0.248c-2.254,0.673-3.848,2.776-3.848,5.164C52.356,32.507,54.773,34.923,57.745,34.923z" />
  <path fill="#fdfcef" d="M72.34,23.655c1.808-0.119,3.365,1.13,3.476,2.789c0.014,0.206,0.005,0.409-0.025,0.606 c0.349-0.394,0.865-0.661,1.458-0.7c1.085-0.071,2.022,0.645,2.158,1.62c0.197-0.054,0.403-0.09,0.616-0.104 c1.582-0.104,2.944,0.989,3.042,2.441" />
  <path fill="#472b29" d="M83.064,30.556c0.006,0,0.012,0,0.017-0.001c0.138-0.009,0.242-0.128,0.233-0.266 c-0.107-1.587-1.588-2.789-3.308-2.674c-0.137,0.009-0.273,0.026-0.409,0.053c-0.274-0.968-1.256-1.645-2.366-1.567 c-0.425,0.027-0.823,0.159-1.164,0.382c0-0.019-0.002-0.037-0.003-0.056c-0.12-1.795-1.787-3.16-3.742-3.021 c-0.138,0.009-0.242,0.128-0.233,0.266c0.009,0.138,0.124,0.255,0.266,0.232c1.651-0.105,3.108,1.037,3.21,2.557 c0.012,0.184,0.004,0.37-0.023,0.553c-0.017,0.109,0.041,0.217,0.141,0.264s0.219,0.022,0.293-0.061 c0.323-0.365,0.78-0.584,1.287-0.617c0.951-0.034,1.775,0.556,1.894,1.404c0.01,0.071,0.05,0.135,0.11,0.175 c0.06,0.039,0.133,0.051,0.204,0.032c0.187-0.051,0.377-0.083,0.567-0.097c1.44-0.092,2.687,0.896,2.775,2.209 C82.824,30.455,82.934,30.556,83.064,30.556z" />
  <path fill="#fdfcef" d="M55.765,25.323c1.699-0.801,3.664-0.234,4.389,1.267c0.09,0.186,0.157,0.379,0.201,0.574" />
  <path fill="#472b29" d="M60.355,27.414c0.018,0,0.037-0.002,0.056-0.006c0.134-0.031,0.219-0.165,0.188-0.3 c-0.049-0.217-0.123-0.428-0.219-0.627c-0.783-1.621-2.902-2.239-4.721-1.385c-0.125,0.06-0.179,0.208-0.12,0.333 c0.059,0.126,0.209,0.176,0.333,0.12c1.574-0.744,3.394-0.227,4.058,1.149c0.08,0.165,0.141,0.34,0.182,0.521 C60.138,27.336,60.241,27.414,60.355,27.414z" />
  <path fill="#fabf82" d="M77.53,58.68c-0.491-0.343-6.792-2.526-6.792-2.526c-0.401-0.106-0.623-0.431-0.695-0.792 c-0.202-1.025-0.178-3.489-0.173-3.929c0.001-0.035-0.031-0.061-0.071-0.061h-0.238h-5.842h-0.238c-0.04,0-0.071,0.027-0.071,0.061 c0.004,0.436,0.025,2.85-0.173,3.929c-0.067,0.363-0.294,0.686-0.695,0.792l-5.15,1.77c-0.515,0.141-1.011,0.343-1.446,0.624 c-2.273,1.469-2.339,3.875-2.433,4.322c-0.008,0.038,0.026,0.073,0.07,0.073H66.64h13.057c0.045,0,0.078-0.035,0.07-0.073 C79.677,62.436,79.643,60.157,77.53,58.68z" />
  <path fill="#472b29" d="M69.8,51.372c0.04,0,0.071,0.026,0.071,0.061c-0.005,0.44-0.029,2.904,0.173,3.929 c0.072,0.362,0.294,0.686,0.695,0.792c0,0,6.301,2.182,6.792,2.526c2.113,1.477,2.147,3.757,2.238,4.191 c0.008,0.038-0.026,0.073-0.07,0.073H66.641H53.584c-0.045,0-0.078-0.035-0.07-0.073c0.094-0.448,0.16-2.853,2.433-4.322 c0.435-0.281,0.931-0.483,1.446-0.624l5.15-1.77c0.401-0.106,0.628-0.429,0.695-0.792c0.198-1.079,0.177-3.493,0.173-3.929 c-0.001-0.035,0.031-0.061,0.07-0.061h0.238h5.842L69.8,51.372 M69.8,50.648h-0.238H63.72h-0.238c-0.215,0-0.425,0.086-0.575,0.236 c-0.149,0.15-0.231,0.347-0.228,0.557c0.015,1.329-0.021,3.024-0.161,3.791c-0.034,0.188-0.133,0.214-0.165,0.223l-0.026,0.007 l-0.025,0.009l-5.129,1.763c-0.617,0.171-1.164,0.41-1.628,0.709c-2.298,1.485-2.619,3.838-2.725,4.61 c-0.01,0.074-0.017,0.132-0.025,0.17c-0.048,0.231,0.01,0.468,0.161,0.651c0.153,0.186,0.381,0.292,0.625,0.292H66.64h13.057 c0.245,0,0.472-0.106,0.625-0.292c0.151-0.183,0.209-0.42,0.161-0.651c-0.008-0.04-0.015-0.099-0.025-0.174 c-0.105-0.814-0.384-2.975-2.508-4.46c-0.5-0.349-4.583-1.79-6.972-2.618l-0.026-0.009l-0.026-0.007 c-0.031-0.009-0.127-0.034-0.166-0.232c-0.143-0.724-0.176-2.428-0.159-3.782c0.002-0.21-0.078-0.408-0.228-0.557 C70.225,50.734,70.015,50.648,69.8,50.648L69.8,50.648z" />
  <path fill="#fddbbc" d="M76.626,43.715c0.112-0.38,0.206-0.753,0.34-1.124c0.174-0.485,0.051-0.796-0.493-1.096 c-0.025-0.014-0.045-0.03-0.067-0.046c-0.087-0.014-0.171-0.025-0.241-0.033c-0.489-0.057-1.358-0.082-1.611-0.586 c-0.286-0.571-0.144-1.177-0.07-1.78c0.081-0.663-0.171-1.302-0.173-1.964c-0.045-0.065-0.078-0.142-0.087-0.234 c-0.1-0.976-0.388-1.909-0.772-2.812c-1.352-1.772-3.878-2.967-6.768-2.967c-4.31,0-7.818,2.657-7.818,5.922 c0,0.155,0.01,0.307,0.026,0.459c-0.042,0.59-0.099,1.116-0.072,1.763c0.024,0.572-0.06,0.996-0.004,1.751 c0.031,0.425-0.165,0.151-0.852,0.185c-0.088,0-0.173,0.001-0.256,0.007c-0.754,0.05-1.364,0.53-1.494,1.124 c0.092,0.056,0.166,0.146,0.2,0.279c0.275,1.103,0.237,2.378,0.792,3.403c0.31,0.572,0.795,0.652,1.293,1.021 c0.276,0.205,0.329,0.436,0.404,0.742c0.28,1.132,1.055,2.095,1.906,2.917c0.431,0.416,0.893,0.79,1.359,1.169 c0.387,0.314,0.793,0.677,1.273,0.864c0.16,0.062,0.26,0.174,0.308,0.3c0.318,0.169,0.767,0.406,0.767,0.402 c1.535,0.61,3.008,0.662,4.562-0.03c0,0.006,0,0.012,0,0.017c0.008-0.005,0.756-0.362,1.062-0.53 c0.024-0.033,0.052-0.065,0.089-0.096c0.471-0.394,0.992-0.722,1.477-1.098c0.398-0.31,0.725-0.652,1.033-1.024 c-0.071-0.161,0.086-0.022,0.233-0.191c0.689-0.791,1.336-2.037,1.448-3.051c0.006-0.052,0.044-0.09,0.072-0.127 c-0.089-0.281,0.132-0.435,0.539-0.446c0.368-0.009,0.586-0.421,0.868-0.619C76.109,45.387,76.393,44.502,76.626,43.715z" />
  <path fill="#8e7469" d="M74.762,43.049c0.009-0.129,0.011-0.258-0.004-0.386l0.975,0.187l-0.354,1.75l-0.393-0.071 l0.279-1.383L74.762,43.049z" opacity=".8" />
  <path fill="#472b29" d="M76.079,41.176c-0.335-0.084-0.691-0.092-1.068-0.138c0-0.04-0.096,0.043-0.096,0.003 c-0.238-0.023-0.364-0.301-0.368-0.591c-0.007-0.585-0.081-1.227-0.028-1.841c0.015-0.554-0.085-0.907-0.193-1.299 c0.017-0.161,0.027-0.323,0.027-0.487c0-3.356-3.507-6.087-7.818-6.087c-4.31,0-7.818,2.731-7.818,6.087 c0,0.159,0.01,0.316,0.026,0.472c-0.042,0.607-0.099,1.148-0.072,1.811c0.024,0.588-0.06,1.024-0.004,1.799 c0.031,0.437-0.165,0.156-0.852,0.19c-0.088,0-0.173,0.001-0.256,0.007c-0.935,0.064-1.65,0.806-1.501,1.609 c0.172,0.93,0.378,1.856,0.611,2.775c0.231,0.909,0.685,1.653,1.788,1.759c0.142,1.182,0.395,1.783,1.15,2.715 c1.024,1.266,2.239,2.346,3.707,3.133c0.152,0.082,1.054,0.575,1.054,0.569c1.535,0.627,3.008,0.68,4.562-0.03 c0,0.006,0,0.012,0,0.018c0.01-0.006,0.978-0.482,1.161-0.603c0.737-0.489,1.488-0.978,2.136-1.563 c1.285-1.159,2.498-2.388,2.624-4.241c1.09-0.097,1.541-0.831,1.774-1.718c0.228-0.87,0.393-1.755,0.577-2.634 C77.379,42.044,76.965,41.397,76.079,41.176z M58.455,46.606c-0.546,0.014-0.908-0.199-1.099-0.802 c-0.262-0.827-0.653-2.553-0.658-2.568c-0.413-1.258,0.367-1.817,1.757-1.553v0.731c-0.007,0-0.014,0.607,0.001,0.61L58.455,46.606 L58.455,46.606z M74.248,47.469c-0.003,0.326-0.058,0.695-0.223,0.972c-1.524,2.549-3.668,4.403-6.741,5.139 c-1.066,0.255-2.065-0.111-2.992-0.551c-1.943-0.92-3.497-2.271-4.685-3.991c-0.389-0.564-0.597-1.169-0.567-1.861 c0.04-0.915,0.01-1.832,0.01-2.749c0-0.113,0.009-0.226-0.001-0.337c-0.228-2.516,0.301-7.176,0.301-7.268 c0-3.029,3.225-5.494,7.189-5.494c3.964,0,7.318,2.464,7.318,5.494c0,0.062,0.025,0.135,0.023,0.197 c0.272,0.257,0.071,2.705,0.353,3.94c0.031,0.14,0.026,0.288,0.026,0.432C74.259,43.418,74.268,45.444,74.248,47.469z M76.691,42.678c-0.202,1.055-0.448,2.105-0.748,3.139c-0.169,0.584-0.488,0.76-1.092,0.816v-3.601 c0.001-0.001,0.003-0.001,0.004-0.001c-0.001-0.012-0.003-0.022-0.003-0.034v-0.76c-0.004-0.002-0.009-0.004-0.013-0.007v-0.607 c0.325,0,0.627-0.02,0.927,0.004C76.37,41.676,76.799,42.11,76.691,42.678z" />
  <path fill="#8e7469" d="M58.597,43.363c-0.01-0.135-0.011-0.271,0.004-0.406l-1.024,0.196l0.371,1.839l0.414-0.075 l-0.294-1.454L58.597,43.363z" opacity=".8" />
  <path fill="#472b29" d="M66.605 46.591c.518 0 1.02-.224 1.344-.598.032-.038.028-.094-.01-.127l0 0c-.038-.032-.095-.028-.128.009-.264.297-.703.468-1.205.468-.503 0-.942-.171-1.206-.468-.018-.02-.043-.03-.069-.03-.021 0-.042.007-.059.022-.038.033-.042.089-.01.127C65.585 46.367 66.087 46.591 66.605 46.591zM64.952 39.674l.329-.624c-1.39-.322-2.99-.271-4.31.135l.414.608C62.47 39.438 63.805 39.394 64.952 39.674zM71.911 39.674l.329-.624c-1.39-.322-2.99-.271-4.31.135l.414.608C69.429 39.438 70.764 39.394 71.911 39.674zM62.952 40.554c-.334 0-.627.219-.796.548.042-.013.086-.022.132-.022.274 0 .496.245.496.547 0 .302-.222.547-.496.547-.089 0-.173-.028-.245-.075.117.496.48.857.909.857.524 0 .95-.538.95-1.201C63.901 41.092 63.477 40.554 62.952 40.554zM70.217 40.554c-.285 0-.54.159-.714.411.054-.022.113-.037.174-.037.274 0 .496.245.496.547 0 .302-.222.547-.496.547-.17 0-.319-.095-.409-.238.012.65.432 1.172.948 1.172.524 0 .95-.538.95-1.201C71.167 41.092 70.742 40.554 70.217 40.554zM70.62 47.982c.039-.031.045-.088.013-.126l0 0c-.031-.038-.089-.045-.128-.014-.856.674-2.278 1.061-3.9 1.061s-3.044-.387-3.901-1.061c-.017-.013-.037-.02-.057-.02-.026 0-.053.012-.071.033-.031.038-.026.095.013.127.967.781 2.468 1.247 4.015 1.247C68.152 49.229 69.654 48.763 70.62 47.982z" />
  <path fill="#ee3e54" d="M77.618,58.611c-0.493-0.349-1.061-0.605-1.663-0.772l-0.633-0.169 c0.004-0.001,0.009-0.002,0.012-0.004l-3.301-1.073c-1.675,0.451-3.471,0.698-5.344,0.698c-1.873,0-3.67-0.248-5.344-0.698 l-3.301,1.073c0.004,0.001,0.009,0.002,0.013,0.004l-0.649,0.173c-0.518,0.143-1.015,0.348-1.451,0.634 c-2.282,1.493-2.347,3.937-2.442,4.391c-0.008,0.039,0.026,0.074,0.07,0.074h13.105h13.105c0.045,0,0.078-0.035,0.07-0.074 C79.772,62.428,79.739,60.113,77.618,58.611z" />
  <path fill="#472b29" d="M66.626 57.474c-1.764 0-3.83-.284-5.669-.778-.097-.026-.155-.126-.129-.222.026-.096.126-.152.225-.127 1.809.486 3.841.765 5.573.765.68 0 1.367-.034 2.043-.101.105-.011.19.064.2.163.01.099-.063.188-.164.198C68.018 57.439 67.319 57.474 66.626 57.474zM70.016 57.198c-.088 0-.165-.063-.18-.152-.016-.098.051-.192.151-.208.138-.022.276-.046.412-.072.125-.023.25-.048.376-.074.097-.015.195.043.216.141.02.098-.044.193-.143.213-.126.025-.253.05-.381.075-.14.026-.28.051-.421.075C70.036 57.197 70.025 57.198 70.016 57.198zM53.584 63.052c-.021 0-.042-.006-.06-.017-.051-.033-.065-.101-.031-.15l3.533-5.342c.033-.05.102-.065.152-.032s.065.101.031.15l-3.533 5.342C53.655 63.034 53.62 63.052 53.584 63.052zM54.672 63.232c-.021 0-.042-.006-.06-.017-.051-.033-.065-.101-.031-.15l3.945-5.965c.033-.051.102-.065.152-.032s.065.101.031.15l-3.945 5.965C54.743 63.214 54.708 63.232 54.672 63.232zM56.018 63.052c-.021 0-.042-.006-.06-.017-.051-.033-.065-.101-.031-.15l3.945-5.965c.033-.05.102-.064.152-.032.051.033.065.101.031.15l-3.945 5.965C56.089 63.034 56.054 63.052 56.018 63.052zM57.118 63.232c-.021 0-.042-.006-.06-.017-.051-.033-.065-.101-.031-.15l3.945-5.965c.034-.051.102-.065.152-.032s.065.101.031.15l-3.945 5.965C57.188 63.214 57.153 63.232 57.118 63.232zM58.256 63.364c-.021 0-.042-.006-.06-.017-.051-.033-.065-.101-.031-.15l2.803-4.238c.033-.05.102-.064.152-.032.051.033.065.101.031.15l-2.803 4.238C58.326 63.346 58.292 63.364 58.256 63.364zM59.436 63.497c-.021 0-.042-.006-.06-.017-.051-.033-.065-.101-.031-.15l1.401-2.119c.033-.05.101-.064.152-.032.051.033.065.101.031.15l-1.401 2.119C59.507 63.479 59.472 63.497 59.436 63.497z" />
  <path fill="#512c2b" d="M67.463 51.388c.045 0 .084-.052.084-.114s-.038-.114-.084-.114h-1.882c-.045 0-.084.052-.084.114s.038.114.084.114H67.463zM57.357 33.285c.27-.717 1.215-.772 1.215-.772s-.807-1.016-.538-1.48c.269-.464 3.158-3.755 10.178-3.026 7.02.729 7.891 5.236 7.891 5.236l-1.428 8.234c0 0-2.801-8.168-14.118-6.625 0 0 .493 1.038-1.898 5.164L57.357 33.285 57.357 33.285z" />
  <path fill="#be7841" d="M31.909,42.567c-0.116-0.252-2.821-6.205-0.779-10.296c0.859-1.723,2.425-2.851,4.654-3.354 c1.275-0.86,2.803-1.333,4.312-1.333c1.273,0,2.51,0.324,3.675,0.965c0.606,0.334,1.099,0.616,1.511,0.853 c1.317,0.756,1.716,0.983,2.458,0.983c0.084,0,0.171-0.003,0.264-0.008c0.208-0.014,0.319-0.02,0.424-0.02 c0.814,0,1.001,0.483,1.039,0.772c0.107,0.792-0.169,1.461-0.412,2.051c-0.203,0.491-0.378,0.915-0.269,1.27 c1.365,4.418-0.752,8.013-0.843,8.164l-0.939,1.562l0.011-1.822c0-0.035,0.011-3.239-0.739-5.373 c-1.033,0.536-2.268,0.817-3.608,0.817c-2.378,0-5.002-0.845-7.607-2.447c-2.197,1.807-2.195,6.949-2.195,7.003l0.013,2.305 L31.909,42.567z" />
  <path fill="#472b29" d="M40.095,28.085c1.107,0,2.276,0.267,3.434,0.903c2.588,1.423,3.068,1.898,4.21,1.898 c0.093,0,0.19-0.003,0.293-0.009c0.135-0.008,0.27-0.019,0.394-0.019c0.281,0,0.507,0.057,0.545,0.34 c0.179,1.329-0.986,2.357-0.663,3.401c1.314,4.255-0.794,7.759-0.794,7.759s0.025-3.884-0.991-6.098 c-1.049,0.683-2.366,1.04-3.856,1.04c-2.253,0-4.904-0.815-7.63-2.551c-2.705,1.774-2.673,7.61-2.673,7.61 s-5.122-11.087,3.623-12.972C37.099,28.614,38.536,28.085,40.095,28.085 M40.095,27.085c-1.577,0-3.171,0.484-4.512,1.367 c-2.334,0.547-3.983,1.757-4.901,3.597c-2.148,4.304,0.653,10.468,0.773,10.729l1.926,4.168l-0.018-4.592 c-0.005-1.341,0.316-4.849,1.76-6.378c2.578,1.523,5.172,2.324,7.542,2.324c1.197,0,2.317-0.213,3.299-0.622 c0.455,1.665,0.554,3.838,0.548,4.674l-0.024,3.647l1.881-3.125c0.096-0.159,2.323-3.94,0.893-8.57 c-0.056-0.182,0.101-0.562,0.253-0.93c0.254-0.616,0.571-1.383,0.446-2.309c-0.027-0.201-0.228-1.206-1.536-1.206 c-0.115,0-0.237,0.007-0.361,0.015l-0.091,0.006c-0.083,0.005-0.16,0.007-0.235,0.007c-0.588,0-0.888-0.16-2.208-0.917 c-0.414-0.238-0.909-0.521-1.521-0.858C42.771,27.43,41.454,27.085,40.095,27.085L40.095,27.085z" />
  <path fill="#fabf82" d="M50.832,58.609c-0.491-0.342-6.792-2.52-6.792-2.52c-0.401-0.106-0.623-0.429-0.695-0.79 c-0.202-1.022-0.178-3.48-0.173-3.919c0.001-0.035-0.031-0.061-0.071-0.061h-0.238h-5.842h-0.238c-0.04,0-0.071,0.027-0.071,0.061 c0.004,0.435,0.025,2.843-0.173,3.919c-0.067,0.362-0.294,0.684-0.695,0.79l-5.15,1.766c-0.515,0.141-1.011,0.342-1.446,0.623 c-2.273,1.466-2.339,3.865-2.433,4.312c-0.008,0.038,0.026,0.073,0.07,0.073h13.057h13.057c0.045,0,0.078-0.035,0.07-0.073 C52.978,62.356,52.945,60.082,50.832,58.609z" />
  <path fill="#472b29" d="M43.102,51.318c0.04,0,0.071,0.026,0.071,0.061c-0.005,0.439-0.029,2.897,0.173,3.919 c0.072,0.362,0.294,0.684,0.695,0.79c0,0,6.301,2.177,6.792,2.52c2.113,1.474,2.147,3.748,2.238,4.181 c0.008,0.038-0.026,0.073-0.07,0.073H39.943H26.886c-0.045,0-0.078-0.035-0.07-0.073c0.094-0.447,0.16-2.846,2.433-4.312 c0.435-0.281,0.931-0.481,1.446-0.623l5.15-1.766c0.401-0.106,0.628-0.428,0.695-0.79c0.198-1.076,0.177-3.485,0.173-3.919 c-0.001-0.035,0.031-0.061,0.07-0.061h0.238h5.842L43.102,51.318 M43.102,50.596h-0.238h-5.842h-0.238 c-0.215,0-0.425,0.086-0.575,0.235c-0.149,0.149-0.231,0.346-0.228,0.556c0.015,1.326-0.021,3.017-0.161,3.782 c-0.034,0.188-0.133,0.214-0.165,0.222l-0.026,0.006l-0.025,0.009l-5.129,1.759c-0.617,0.17-1.164,0.409-1.628,0.707 c-2.298,1.482-2.619,3.828-2.725,4.599c-0.01,0.074-0.017,0.131-0.025,0.17c-0.048,0.23,0.01,0.467,0.161,0.65 c0.153,0.186,0.381,0.292,0.625,0.292h13.057h13.057c0.245,0,0.472-0.106,0.625-0.292c0.151-0.183,0.209-0.419,0.161-0.65 c-0.008-0.04-0.015-0.099-0.025-0.174c-0.105-0.812-0.384-2.968-2.508-4.449c-0.5-0.349-4.583-1.786-6.972-2.611l-0.026-0.009 l-0.026-0.007c-0.031-0.009-0.127-0.034-0.166-0.232c-0.143-0.722-0.176-2.422-0.159-3.773c0.002-0.209-0.078-0.407-0.228-0.556 C43.526,50.682,43.317,50.596,43.102,50.596L43.102,50.596z" />
  <path fill="#fddbbc" d="M49.928,43.679c0.112-0.379,0.206-0.751,0.34-1.121c0.174-0.484,0.051-0.794-0.493-1.094 c-0.025-0.014-0.045-0.03-0.067-0.045c-0.087-0.014-0.171-0.025-0.241-0.033c-0.489-0.057-1.358-0.082-1.611-0.585 c-0.286-0.569-0.144-1.174-0.07-1.776c0.081-0.662-0.171-1.299-0.173-1.959c-0.045-0.065-0.078-0.141-0.087-0.233 c-0.1-0.974-0.388-1.905-0.772-2.805c-1.352-1.768-3.878-2.96-6.768-2.96c-4.31,0-7.818,2.65-7.818,5.908 c0,0.154,0.01,0.307,0.026,0.458c-0.042,0.589-0.099,1.114-0.072,1.758c0.024,0.57-0.06,0.994-0.004,1.747 c0.031,0.424-0.165,0.151-0.852,0.184c-0.088,0-0.173,0.001-0.256,0.006c-0.754,0.05-1.364,0.528-1.494,1.121 c0.092,0.056,0.166,0.146,0.2,0.279c0.275,1.1,0.237,2.373,0.792,3.395c0.31,0.571,0.795,0.65,1.293,1.018 c0.276,0.204,0.329,0.435,0.404,0.74c0.28,1.13,1.055,2.09,1.906,2.91c0.431,0.415,0.893,0.788,1.359,1.166 c0.387,0.313,0.793,0.676,1.273,0.862c0.16,0.062,0.26,0.174,0.308,0.3c0.318,0.168,0.767,0.405,0.767,0.401 c1.535,0.608,3.008,0.66,4.562-0.03c0,0.006,0,0.012,0,0.017c0.008-0.005,0.756-0.362,1.062-0.528 c0.024-0.032,0.052-0.065,0.089-0.095c0.471-0.393,0.992-0.72,1.477-1.096c0.398-0.309,0.725-0.65,1.033-1.021 c-0.071-0.161,0.086-0.022,0.233-0.191c0.689-0.789,1.336-2.032,1.448-3.044c0.006-0.052,0.044-0.09,0.072-0.127 c-0.089-0.281,0.132-0.434,0.539-0.445c0.368-0.009,0.586-0.42,0.868-0.618C49.41,45.348,49.695,44.464,49.928,43.679z" />
  <path fill="#8e7469" d="M48.064,43.015c0.009-0.128,0.011-0.258-0.004-0.385l0.975,0.186l-0.354,1.745l-0.393-0.071 l0.279-1.379L48.064,43.015z" opacity=".8" />
  <path fill="#472b29" d="M49.381,41.147c-0.335-0.084-0.691-0.092-1.068-0.138c0-0.04-0.096,0.043-0.096,0.003 c-0.238-0.023-0.364-0.3-0.368-0.59c-0.007-0.584-0.081-1.224-0.028-1.836c0.015-0.552-0.085-0.905-0.193-1.296 c0.017-0.16,0.027-0.322,0.027-0.486c0-3.348-3.507-6.072-7.818-6.072s-7.818,2.724-7.818,6.072c0,0.159,0.01,0.315,0.026,0.471 c-0.042,0.606-0.099,1.145-0.072,1.807c0.024,0.586-0.06,1.021-0.004,1.795c0.031,0.436-0.165,0.155-0.852,0.189 c-0.088,0-0.173,0.001-0.256,0.006c-0.935,0.064-1.65,0.804-1.501,1.605c0.172,0.928,0.378,1.851,0.611,2.768 c0.231,0.907,0.685,1.649,1.788,1.755c0.142,1.179,0.395,1.779,1.15,2.708c1.024,1.263,2.239,2.34,3.707,3.125 c0.152,0.082,1.054,0.574,1.054,0.567c1.535,0.626,3.008,0.678,4.562-0.03c0,0.006,0,0.012,0,0.018 c0.01-0.006,0.978-0.481,1.161-0.602c0.737-0.488,1.488-0.976,2.136-1.559c1.285-1.156,2.498-2.382,2.624-4.231 c1.09-0.097,1.541-0.829,1.774-1.714c0.228-0.868,0.393-1.75,0.577-2.628C50.681,42.012,50.266,41.367,49.381,41.147z M31.757,46.563c-0.546,0.014-0.908-0.198-1.099-0.8c-0.262-0.825-0.653-2.546-0.658-2.562c-0.413-1.255,0.367-1.812,1.757-1.549 v0.729c-0.007,0-0.014,0.606,0.001,0.608L31.757,46.563L31.757,46.563z M47.55,47.425c-0.003,0.326-0.058,0.693-0.223,0.969 c-1.524,2.543-3.668,4.392-6.741,5.126c-1.066,0.255-2.065-0.111-2.992-0.549c-1.943-0.918-3.497-2.266-4.685-3.981 c-0.389-0.562-0.597-1.166-0.567-1.856c0.04-0.912,0.01-1.828,0.01-2.742c0-0.113,0.009-0.225-0.001-0.336 c-0.228-2.51,0.301-7.159,0.301-7.25c0-3.022,3.225-5.481,7.189-5.481s7.318,2.458,7.318,5.481c0,0.062,0.025,0.135,0.023,0.196 c0.272,0.256,0.071,2.699,0.353,3.931c0.031,0.139,0.026,0.287,0.026,0.431C47.561,43.383,47.57,45.404,47.55,47.425z M49.993,42.645c-0.202,1.052-0.448,2.1-0.748,3.131c-0.169,0.582-0.488,0.758-1.092,0.814v-3.592 c0.001-0.001,0.003-0.001,0.004-0.001c-0.001-0.012-0.003-0.022-0.003-0.034v-0.759c-0.004-0.002-0.009-0.004-0.013-0.006v-0.606 c0.325,0,0.627-0.019,0.927,0.004C49.672,41.645,50.101,42.078,49.993,42.645z" />
  <path fill="#8e7469" d="M31.898,43.328c-0.01-0.135-0.011-0.271,0.004-0.405l-1.024,0.196l0.371,1.835l0.414-0.074 l-0.294-1.45L31.898,43.328z" opacity=".8" />
  <path fill="#472b29" d="M39.906 46.548c.518 0 1.02-.223 1.344-.596.032-.038.028-.094-.01-.126l0 0c-.038-.032-.095-.028-.128.009-.264.297-.703.467-1.205.467-.503 0-.942-.17-1.206-.467-.018-.02-.043-.03-.069-.03-.021 0-.042.007-.059.022-.038.032-.042.089-.01.126C38.887 46.325 39.389 46.548 39.906 46.548zM38.254 39.649l.329-.622c-1.39-.321-2.99-.27-4.31.134l.414.606C35.772 39.413 37.107 39.369 38.254 39.649zM45.213 39.649l.329-.622c-1.39-.321-2.99-.27-4.31.134l.414.606C42.731 39.413 44.065 39.369 45.213 39.649zM36.254 40.526c-.334 0-.627.218-.796.546.042-.013.086-.022.132-.022.274 0 .496.244.496.546 0 .302-.222.546-.496.546-.089 0-.173-.028-.245-.074.117.494.48.855.909.855.524 0 .95-.536.95-1.198C37.203 41.063 36.779 40.526 36.254 40.526zM43.519 40.526c-.285 0-.54.159-.714.41.054-.022.113-.037.174-.037.274 0 .496.244.496.546 0 .301-.222.546-.496.546-.17 0-.319-.095-.409-.237.012.648.432 1.169.948 1.169.524 0 .95-.536.95-1.198S44.044 40.526 43.519 40.526zM43.922 47.936c.039-.031.045-.088.013-.126l0 0c-.031-.038-.089-.045-.128-.014-.856.673-2.278 1.059-3.9 1.059s-3.044-.386-3.901-1.059c-.017-.013-.037-.019-.057-.019-.026 0-.053.012-.071.033-.031.038-.026.095.013.126.966.779 2.468 1.244 4.015 1.244C41.454 49.18 42.955 48.715 43.922 47.936z" />
  <path fill="#68c8d0" d="M50.919,58.54c-0.493-0.348-1.061-0.603-1.663-0.77l-0.633-0.168 c0.004-0.001,0.009-0.002,0.012-0.004l-3.301-1.07c-1.675,0.45-3.471,0.697-5.344,0.697c-1.873,0-3.67-0.248-5.344-0.697 l-3.301,1.07c0.004,0.001,0.009,0.002,0.013,0.004l-0.649,0.173c-0.518,0.143-1.015,0.347-1.451,0.632 c-2.282,1.49-2.347,3.927-2.442,4.381c-0.008,0.039,0.026,0.074,0.07,0.074h13.105h13.105c0.045,0,0.078-0.035,0.07-0.074 C53.074,62.348,53.041,60.038,50.919,58.54z" />
  <path fill="#472b29" d="M39.928 57.405c-1.764 0-3.83-.283-5.669-.776-.097-.026-.155-.126-.129-.222.026-.096.126-.152.225-.127 1.809.485 3.841.764 5.573.764.68 0 1.367-.034 2.043-.1.105-.011.19.064.2.162.01.099-.063.188-.164.197C41.32 57.371 40.62 57.405 39.928 57.405zM43.318 57.13c-.088 0-.165-.063-.18-.152-.016-.098.051-.191.151-.207.138-.022.276-.046.412-.072.125-.023.25-.048.376-.074.097-.015.195.043.216.141.02.097-.044.193-.143.213-.126.025-.253.05-.381.074-.14.026-.28.051-.421.074C43.338 57.129 43.327 57.13 43.318 57.13zM26.886 62.971c-.021 0-.042-.006-.06-.017-.051-.033-.065-.1-.031-.15l3.533-5.329c.033-.05.102-.065.152-.032s.065.1.031.15l-3.533 5.329C26.957 62.952 26.922 62.971 26.886 62.971zM27.974 63.15c-.021 0-.042-.006-.06-.017-.051-.033-.065-.1-.031-.15l3.945-5.95c.033-.051.102-.065.152-.032s.065.1.031.15l-3.945 5.95C28.045 63.131 28.01 63.15 27.974 63.15zM29.32 62.971c-.021 0-.042-.006-.06-.017-.051-.033-.065-.1-.031-.15l3.945-5.95c.033-.05.102-.064.152-.032.051.033.065.1.031.15l-3.945 5.95C29.391 62.952 29.355 62.971 29.32 62.971zM30.419 63.15c-.021 0-.042-.006-.06-.017-.051-.033-.065-.1-.031-.15l3.945-5.95c.034-.051.102-.065.152-.032s.065.1.031.15l-3.945 5.95C30.49 63.131 30.455 63.15 30.419 63.15zM31.558 63.281c-.021 0-.042-.006-.06-.017-.051-.033-.065-.1-.031-.15l2.803-4.228c.033-.05.102-.064.152-.032.051.033.065.1.031.15l-2.803 4.228C31.628 63.264 31.594 63.281 31.558 63.281zM32.738 63.414c-.021 0-.042-.006-.06-.017-.051-.033-.065-.1-.031-.15l1.401-2.114c.033-.05.101-.064.152-.032.051.033.065.1.031.15l-1.401 2.114C32.809 63.396 32.773 63.414 32.738 63.414z" />
  <path fill="#512c2b" d="M40.765,51.334c0.045,0,0.084-0.052,0.084-0.113s-0.038-0.113-0.084-0.113h-1.882 c-0.045,0-0.084,0.052-0.084,0.113s0.038,0.113,0.084,0.113H40.765z" />
  <path fill="#be7841" d="M48.971,31.242c-0.055-0.407-0.5-0.346-0.939-0.321c-1.37,0.08-1.705-0.351-4.503-1.889 c-2.788-1.533-5.641-0.922-7.542,0.398c-8.746,1.885-3.623,12.972-3.623,12.972s-0.032-5.836,2.673-7.61 c4.529,2.884,8.851,3.227,11.486,1.511c1.017,2.214,0.991,6.098,0.991,6.098s2.109-3.504,0.794-7.759 C47.985,33.6,49.15,32.572,48.971,31.242L48.971,31.242z" />
  <path fill="#472b29" d="M47.904,42.373l-0.5-0.004c0-0.036,0.013-3.563-0.873-5.734c-2.889,1.657-7.274,1.065-11.57-1.575 c-2.478,1.78-2.476,7.254-2.476,7.311l-0.5,0.002c-0.001-0.243-0.001-5.994,2.834-7.82c0.084-0.051,0.187-0.053,0.269-0.002 c4.3,2.689,8.678,3.271,11.423,1.512c0.061-0.038,0.137-0.05,0.204-0.029c0.069,0.021,0.127,0.069,0.157,0.135 C47.919,38.406,47.905,42.212,47.904,42.373z" />
  <path fill="#fff" d="M16.405 52H6.5C6.224 52 6 51.776 6 51.5S6.224 51 6.5 51h9.905c.276 0 .5.224.5.5S16.682 52 16.405 52zM19.5 52h-1c-.276 0-.5-.224-.5-.5s.224-.5.5-.5h1c.276 0 .5.224.5.5S19.777 52 19.5 52zM24.491 54H15.5c-.276 0-.5-.224-.5-.5s.224-.5.5-.5h8.991c.276 0 .5.224.5.5S24.767 54 24.491 54zM13.5 54h-1c-.276 0-.5-.224-.5-.5s.224-.5.5-.5h1c.276 0 .5.224.5.5S13.777 54 13.5 54zM10.5 54h-2C8.224 54 8 53.776 8 53.5S8.224 53 8.5 53h2c.276 0 .5.224.5.5S10.777 54 10.5 54zM16.5 56h-2c-.276 0-.5-.224-.5-.5s.224-.5.5-.5h2c.276 0 .5.224.5.5S16.776 56 16.5 56zM19.5 47c-.177 0-.823 0-1 0-.276 0-.5.224-.5.5 0 .276.224.5.5.5.177 0 .823 0 1 0 .276 0 .5-.224.5-.5C20 47.224 19.776 47 19.5 47zM19.5 49c-.177 0-4.823 0-5 0-.276 0-.5.224-.5.5 0 .276.224.5.5.5.177 0 4.823 0 5 0 .276 0 .5-.224.5-.5C20 49.224 19.776 49 19.5 49zM24.5 51c-.177 0-2.823 0-3 0-.276 0-.5.224-.5.5 0 .276.224.5.5.5.177 0 2.823 0 3 0 .276 0 .5-.224.5-.5C25 51.224 24.776 51 24.5 51zM45.5 21h-10c-.276 0-.5-.224-.5-.5s.224-.5.5-.5h10c.276 0 .5.224.5.5S45.776 21 45.5 21zM49.5 21h-2c-.276 0-.5-.224-.5-.5s.224-.5.5-.5h2c.276 0 .5.224.5.5S49.776 21 49.5 21zM54.5 23h-10c-.276 0-.5-.224-.5-.5s.224-.5.5-.5h10c.276 0 .5.224.5.5S54.777 23 54.5 23zM42.5 23h-1c-.276 0-.5-.224-.5-.5s.224-.5.5-.5h1c.276 0 .5.224.5.5S42.776 23 42.5 23zM39.375 23H37.5c-.276 0-.5-.224-.5-.5s.224-.5.5-.5h1.875c.276 0 .5.224.5.5S39.651 23 39.375 23zM48.5 19h-5c-.276 0-.5-.224-.5-.5s.224-.5.5-.5h5c.276 0 .5.224.5.5S48.777 19 48.5 19zM45.5 25h-2c-.276 0-.5-.224-.5-.5s.224-.5.5-.5h2c.276 0 .5.224.5.5S45.776 25 45.5 25z" />
  <path fill="#88ae45" d="M68.218,74c-0.087-1.736-0.156-3.078-0.156-3.078c-0.304-1.612-0.962-2.557-2.511-3.025 c-0.067-0.02-0.158-0.053-0.26-0.092c-0.118-0.051-0.266-0.111-0.44-0.179c-0.508-0.215-5.505-1.959-7.111-2.557 c-2.192,1.544-3.177,2.139-4.64,2.139c-1.559,0-3.023-0.681-4.627-2.254l-2.432,0.898c-0.006-0.003-0.012-0.006-0.018-0.01 l-0.236,0.062l-3.329,1.207c-0.592,0.155-1.16,0.376-1.66,0.684c-1.347,0.831-2.029,2.08-2.376,3.126c0,0-0.352,2.491-0.338,2.581 c-0.006,0.064-0.012,0.245-0.018,0.497H68.218z" />
  <path fill="#fdfcef" d="M49.419,70.073c0.287,0.774-0.142,1.889-0.163,2.677c-0.012,0.444,0.021,0.854,0.077,1.25h8.121 c0.249-0.379,0.521-0.748,0.828-1.105c-0.551-0.693-0.936-1.496-1.496-2.181c-0.135-0.165-0.145-0.368,0-0.531 c0.315-0.355,0.754-0.535,1.184-0.713c0.473-0.195,0.932-0.409,1.41-0.585c-0.302-1.253-0.898-2.388-1.643-3.436 c-0.099-0.139-0.079-0.273-0.004-0.375c-2.186,1.54-3.172,2.134-4.633,2.134c-1.49,0-2.976-0.599-4.359-2.087 c-0.184,1.143-1.221,2.686-0.453,3.808C48.593,69.373,49.216,69.526,49.419,70.073z" />
  <path fill="#d5e27b" d="M51.884,70.701l-1.242-3.093h4.973l-1.242,3.093C53.82,71.795,52.437,71.795,51.884,70.701z" />
  <path fill="#e1e0d8" d="M48.611,64.738l-1.055,0.846l2.764,5.967l2.97-4.28C53.29,67.271,48.83,65.937,48.611,64.738z" />
  <path fill="#e1e0d8" d="M57.448,64.738l1.216,0.732l-2.925,6.081l-2.97-4.28C52.769,67.271,57.228,65.937,57.448,64.738z" />
  <path fill="#db9e71" d="M62.274,50.96c-0.088-0.006-0.177-0.007-0.27-0.007c-0.725-0.035-0.932,0.254-0.899-0.195 c0.058-0.797-0.053-4.028-0.053-4.191c0-3.348-3.496-6.079-7.864-6.231v-0.01c-0.03,0.001-0.058,0.004-0.088,0.005 c-0.03-0.001-0.058-0.004-0.088-0.005v0.01c-4.368,0.151-7.864,2.882-7.864,6.231c0,0.163-0.111,3.394-0.053,4.191 c0.033,0.449-0.173,0.159-0.899,0.195c-0.093,0-0.182,0.001-0.27,0.007c-0.795,0.053-1.438,0.559-1.575,1.185 c0.097,0.059,0.459,2.803,1.046,3.885c0.327,0.604,0.838,0.688,1.364,1.077c0.291,0.216,0.347,0.459,0.427,0.782 c0.295,1.195,1.113,2.211,2.009,3.077c0.443,0.428,3.38,3.56,5.904,3.401c2.536-0.095,5.461-2.973,5.904-3.401 c0.897-0.867,1.715-1.883,2.009-3.077c0.08-0.323,0.135-0.566,0.427-0.782c0.525-0.39,1.036-0.474,1.364-1.077 c0.586-1.081,0.948-3.825,1.046-3.885C63.712,51.519,63.069,51.013,62.274,50.96z" />
  <path fill="#512c2b" d="M53.146 56.264c.513 0 1.01-.224 1.331-.599.032-.038.028-.095-.01-.127l0 0c-.038-.032-.094-.029-.127.009-.261.298-.696.469-1.194.469-.498 0-.933-.171-1.194-.469-.018-.02-.043-.031-.068-.031-.021 0-.042.007-.059.022-.037.032-.042.089-.01.127C52.135 56.04 52.633 56.264 53.146 56.264zM51.509 49.332l.325-.625c-1.377-.323-2.961-.271-4.269.135l.41.609C49.051 49.096 50.373 49.051 51.509 49.332z" />
  <path fill="#6f913d" d="M58.473 74l.758-1.322-1.979-2.265 3.068-1.132c-1.292-4.151-3.068-4.906-3.068-4.906-.402 3.11-1.066 6.557-1.731 9.626H58.473zM46.795 72.678L47.541 74h2.931c-.647-3.069-1.296-6.516-1.699-9.626 0 0-1.776.755-3.069 4.906l3.069 1.132L46.795 72.678z" />
  <path fill="#512c2b" d="M58.401 49.332l.325-.625c-1.377-.323-2.961-.271-4.269.135l.41.609C55.942 49.096 57.265 49.051 58.401 49.332zM49.528 50.214c-.331 0-.621.219-.788.549.042-.013.085-.022.131-.022.271 0 .491.245.491.548s-.22.548-.491.548c-.089 0-.171-.028-.243-.074.116.496.475.858.901.858.519 0 .94-.539.94-1.204C50.468 50.753 50.047 50.214 49.528 50.214zM56.724 50.214c-.282 0-.535.16-.707.412.054-.023.112-.037.173-.037.271 0 .491.245.491.548 0 .303-.22.548-.491.548-.168 0-.316-.095-.405-.239.012.651.428 1.174.939 1.174.519 0 .94-.539.94-1.204C57.664 50.753 57.243 50.214 56.724 50.214z" />
  <path fill="#472b29" d="M46.616,75.047c-5.419,0-8.484-0.046-8.53-0.047c-0.261-0.004-0.475-0.208-0.491-0.469 c-0.005-0.083-0.12-2.036,0.347-3.646c0.49-1.689,1.097-2.487,2.594-3.411c0.506-0.313,1.11-0.563,1.796-0.742l5.309-1.927 c0.367-0.097,0.614-0.319,0.645-0.477c0.017-0.085,0.058-0.393,0.109-1.445c-0.751-0.533-1.363-1.013-1.547-1.192 c-1.189-1.162-1.872-2.228-2.146-3.351c-0.077-0.316-0.104-0.407-0.241-0.511c-0.15-0.112-0.301-0.196-0.444-0.277 c-0.36-0.203-0.769-0.434-1.06-0.975c-0.649-1.211-1.104-3.426-1.104-4.165c0-0.035,0.004-0.07,0.012-0.105 c0.187-0.869,1.021-1.523,2.029-1.592c0.102-0.007,0.205-0.007,0.31-0.008c0.14-0.009,0.269-0.003,0.382,0.008 c-0.02-0.943,0.031-2.728,0.055-3.556l0.01-0.388c0-3.624,3.615-6.595,8.249-6.797c0.037-0.009,0.075-0.014,0.115-0.014 c0.007,0,0.098,0.005,0.104,0.005c0.029,0,0.06,0.003,0.089,0.008v-0.003c4.681,0.165,8.347,3.151,8.347,6.801l0.01,0.386 c0.023,0.839,0.074,2.659,0.055,3.559c0.125-0.012,0.258-0.017,0.411-0.008c0.077-0.003,0.179,0.001,0.279,0.007 c1.009,0.068,1.844,0.723,2.03,1.592c0.008,0.035,0.012,0.07,0.012,0.105c0,0.827-0.475,2.987-1.105,4.165 c-0.29,0.541-0.698,0.771-1.059,0.975c-0.144,0.081-0.294,0.165-0.445,0.278c-0.136,0.102-0.163,0.193-0.236,0.492 c-0.277,1.141-0.959,2.205-2.149,3.368c-0.185,0.181-0.82,0.704-1.647,1.303c0.002,0.871,0.112,1.178,0.148,1.255 c0.138,0.293,0.34,0.475,0.603,0.542c0.278,0.1,5.65,2.082,6.589,2.479c0.166,0.063,0.32,0.127,0.442,0.18 c0.07,0.026,0.149,0.055,0.208,0.072c1.627,0.491,2.48,1.496,2.846,3.352c0.462,1.075,0.459,3.368,0.457,3.631 C68.998,74.778,68.774,75,68.5,75c-0.001,0-0.002,0-0.002,0c-0.079,0.001-7.92-0.037-11.993,0 C52.669,75.035,49.344,75.047,46.616,75.047z M38.58,74.006c1.745,0.021,8.183,0.083,17.915-0.006 c3.478-0.032,9.687-0.011,11.499-0.002c-0.022-0.844-0.114-2.185-0.385-2.762c-0.018-0.038-0.03-0.078-0.038-0.119 c-0.29-1.534-0.877-2.25-2.164-2.639c-0.077-0.023-0.18-0.06-0.295-0.104c-0.132-0.057-0.274-0.114-0.441-0.18 c-0.932-0.394-6.453-2.432-6.509-2.452c-0.502-0.125-0.949-0.511-1.212-1.07c-0.065-0.14-0.268-0.568-0.241-1.947 c0.003-0.158,0.081-0.306,0.21-0.397c0.905-0.645,1.588-1.207,1.736-1.353c1.051-1.026,1.646-1.939,1.873-2.872 c0.088-0.362,0.184-0.752,0.611-1.073c0.189-0.142,0.375-0.248,0.554-0.349c0.312-0.176,0.517-0.292,0.67-0.577 c0.544-1.016,0.962-2.959,0.985-3.636c-0.116-0.405-0.572-0.72-1.108-0.756c-0.073-0.005-0.146-0.006-0.231-0.006 c-0.245-0.012-0.402,0.015-0.529,0.034c-0.19,0.03-0.454,0.072-0.676-0.132c-0.229-0.209-0.207-0.508-0.198-0.635 c0.046-0.627-0.019-2.924-0.042-3.789c-0.007-0.229-0.011-0.381-0.011-0.414c0-3.107-3.242-5.656-7.382-5.801 c-0.021-0.001-0.041-0.003-0.061-0.006c-0.014,0-0.023,0.001-0.026,0.001l0,0l0,0c-0.018,0.002-0.035,0.004-0.054,0.005 c-4.14,0.145-7.382,2.693-7.382,5.801c0,0.033-0.004,0.186-0.011,0.416c-0.024,0.864-0.089,3.161-0.043,3.786 c0.009,0.127,0.031,0.426-0.197,0.636c-0.221,0.202-0.481,0.162-0.676,0.132c-0.127-0.021-0.285-0.04-0.5-0.035 c-0.092-0.002-0.186,0.001-0.262,0.007c-0.535,0.036-0.991,0.351-1.107,0.756c0.024,0.685,0.461,2.657,0.984,3.636 c0.153,0.285,0.359,0.401,0.67,0.576c0.179,0.102,0.365,0.208,0.554,0.349c0.431,0.324,0.525,0.715,0.608,1.06 c0.231,0.947,0.826,1.86,1.877,2.887c0.118,0.116,0.742,0.616,1.646,1.246c0.141,0.098,0.221,0.261,0.213,0.433 c-0.065,1.483-0.12,1.769-0.138,1.862c-0.127,0.656-0.761,1.097-1.332,1.242l-5.307,1.926c-0.633,0.169-1.146,0.379-1.567,0.64 c-1.292,0.798-1.735,1.382-2.158,2.84C38.61,72.168,38.574,73.364,38.58,74.006z" />
  <path fill="#895d3d" d="M62.395 54.636l-.596-.066.136-1.209-.642.277-.238-.551 1.117-.483c.1-.042.213-.029.298.034.086.063.132.169.119.274L62.395 54.636zM44.051 54.378l-.194-1.724c-.013-.106.033-.211.119-.274.086-.064.199-.078.298-.034l1.117.484-.238.551-.642-.278.136 1.209L44.051 54.378z" />
  <g>
    <path fill="#472b29" d="M45.131,57.758c-0.001,0-0.003,0-0.004,0c-0.11-0.002-0.198-0.094-0.196-0.204l0.123-6.498 c0.002-0.11,0.094-0.191,0.204-0.196c0.11,0.002,0.198,0.094,0.196,0.204l-0.123,6.498C45.329,57.671,45.239,57.758,45.131,57.758z" />
  </g>
  <g>
    <path fill="#472b29" d="M61.194,57.758c-0.108,0-0.198-0.087-0.2-0.196l-0.123-6.498c-0.002-0.11,0.086-0.202,0.196-0.204 c0.001,0,0.003,0,0.004,0c0.108,0,0.198,0.087,0.2,0.196l0.123,6.498c0.002,0.11-0.086,0.202-0.196,0.204 C61.197,57.758,61.195,57.758,61.194,57.758z" />
  </g>
  <g>
    <path fill="#6d1b18" d="M50.53,58.678c-0.03,0.116-0.048,0.236-0.048,0.359c0,1.049,1.161,1.9,2.593,1.9 c1.432,0,2.593-0.851,2.593-1.9c0-0.123-0.017-0.242-0.048-0.359H50.53z" />
  </g>
  <g>
    <path fill="#ee3e54" d="M54.445,60.644c-0.228-0.266-0.755-0.452-1.37-0.452c-0.615,0-1.142,0.186-1.37,0.452 c0.398,0.183,0.865,0.293,1.37,0.293C53.58,60.937,54.047,60.827,54.445,60.644z" />
  </g>
  <g>
    <path fill="#fdfcef" d="M51.273,58.678c-0.001,0.011-0.005,0.022-0.005,0.033v0.321c0,0.281,0.37,0.511,0.823,0.511h1.97 c0.453,0,0.823-0.23,0.823-0.511v-0.321c0-0.011-0.004-0.022-0.005-0.033H51.273z" />
  </g>
  <g>
    <path fill="#472b29" d="M53.075,61.137c-1.54,0-2.793-0.942-2.793-2.1c0-0.136,0.019-0.273,0.054-0.409 c0.022-0.088,0.103-0.149,0.193-0.149h5.092c0.091,0,0.171,0.062,0.193,0.149c0.037,0.141,0.055,0.274,0.055,0.409 C55.869,60.194,54.615,61.137,53.075,61.137z M50.693,58.879c-0.008,0.053-0.011,0.105-0.011,0.158 c0,0.938,1.073,1.699,2.393,1.699c1.32,0,2.394-0.762,2.394-1.699c0-0.053-0.004-0.104-0.011-0.158H50.693z" />
  </g>
  <g>
    <path fill="#512c2b" d="M61.233,55.666c-0.55,1.592-1.123,3.017-1.545,3.973c-0.178,0.404-0.778,0.43-0.99,0.041 c-0.361-0.662-0.98-1.37-1.817-1.756c-2.029-0.936-3.606,0.216-3.606,0.216c0.845,0.023,1.941,0.195,2.404,0.959 c1.625,2.683-2.311,3.119-2.463,2.976c-0.153,0.143-4.089-0.293-2.463-2.976c0.463-0.764,1.559-0.936,2.404-0.959 c0,0-1.578-1.151-3.606-0.216c-0.836,0.386-1.456,1.093-1.817,1.756c-0.212,0.389-0.812,0.363-0.99-0.041 c-0.387-0.875-0.9-2.148-1.405-3.578c-0.072,0.861-0.205,1.715-0.279,2.575c0.024,0.111,0.048,0.222,0.074,0.331 c0.432,1.843,0.984,6.262,6.855,8.201c0.668,0.221,1.774,0.222,2.444,0.004c5.555-1.809,6.346-5.784,6.779-7.805 C61.146,58.137,61.178,56.904,61.233,55.666z" />
  </g>
  <g>
    <path fill="#d5e27b" d="M54.392,74l0.083-1.91c-0.598-1.239-2.094-1.239-2.693,0L51.761,74H54.392z" />
  </g>
  <g>
    <path fill="#fdfcef" d="M36.178,82.287c1.883,0,3.517,0,3.54,0c2.11,0,3.821-1.674,3.821-3.739 c0-1.802-1.302-3.305-3.035-3.66c0.02-0.158,0.034-0.317,0.034-0.48c0-2.139-1.772-3.873-3.957-3.873 c-1.29,0-2.433,0.607-3.155,1.543c-0.185-2.381-2.358-4.218-4.9-3.913c-1.859,0.223-3.397,1.629-3.739,3.431 c-0.11,0.578-0.098,1.139,0.011,1.665c-0.498-0.525-1.208-0.856-1.998-0.856c-1.446,0-2.627,1.102-2.72,2.494 c-0.657-0.142-1.371-0.133-2.123,0.143c-1.438,0.528-2.462,1.853-2.522,3.356c-0.085,2.133,1.657,3.889,3.818,3.889 c0.164,0,0.741,0,0.874,0h7.934 M29.701,82.287h0.36" />
    <path fill="#472b29" d="M39.718,82.788h-3.54c-0.276,0-0.5-0.224-0.5-0.5s0.224-0.5,0.5-0.5h3.54 c1.831,0,3.321-1.453,3.321-3.239c0-1.524-1.108-2.858-2.636-3.17c-0.256-0.053-0.429-0.294-0.396-0.554 c0.018-0.137,0.03-0.275,0.03-0.417c0-1.86-1.551-3.373-3.457-3.373c-1.092,0-2.098,0.491-2.76,1.349 c-0.126,0.164-0.341,0.231-0.539,0.174c-0.198-0.06-0.339-0.234-0.355-0.44c-0.079-1.02-0.565-1.944-1.369-2.604 c-0.829-0.68-1.885-0.979-2.973-0.853c-1.646,0.197-3.006,1.442-3.307,3.027c-0.094,0.495-0.091,0.99,0.009,1.472 c0.045,0.219-0.06,0.441-0.258,0.545c-0.197,0.102-0.44,0.063-0.594-0.1c-0.428-0.451-1.009-0.7-1.635-0.7 c-1.169,0-2.145,0.891-2.221,2.027c-0.01,0.146-0.082,0.278-0.198,0.366c-0.116,0.087-0.264,0.12-0.406,0.089 c-0.639-0.138-1.243-0.098-1.846,0.125c-1.262,0.463-2.144,1.631-2.195,2.905c-0.035,0.876,0.283,1.709,0.895,2.346 c0.635,0.66,1.496,1.024,2.423,1.024h8.807c0.276,0,0.5,0.224,0.5,0.5s-0.224,0.5-0.5,0.5h-8.807 c-1.185,0-2.331-0.485-3.144-1.331c-0.803-0.836-1.219-1.929-1.173-3.078c0.067-1.675,1.212-3.204,2.849-3.806 c0.61-0.225,1.24-0.304,1.88-0.244c0.344-1.396,1.629-2.424,3.135-2.424c0.493,0,0.977,0.113,1.414,0.323 c0.009-0.242,0.037-0.484,0.083-0.727c0.381-2.009,2.096-3.585,4.17-3.833c1.365-0.167,2.685,0.218,3.726,1.071 c0.748,0.613,1.278,1.409,1.546,2.302c0.791-0.648,1.786-1.007,2.842-1.007c2.458,0,4.457,1.962,4.457,4.373 c0,0.034,0,0.068-0.001,0.103c1.764,0.555,3.003,2.188,3.003,4.038C44.039,80.886,42.101,82.788,39.718,82.788z M30.061,82.788 h-0.36c-0.276,0-0.5-0.224-0.5-0.5s0.224-0.5,0.5-0.5h0.36c0.276,0,0.5,0.224,0.5,0.5S30.337,82.788,30.061,82.788z" />
    <g>
      <path fill="#472b29" d="M38.011,76.984c-0.018,0-0.036-0.002-0.055-0.006c-0.135-0.03-0.22-0.164-0.189-0.299 c0.037-0.164,0.094-0.325,0.17-0.479c0.604-1.224,2.272-1.677,3.722-1.007c0.125,0.058,0.18,0.206,0.122,0.331 c-0.058,0.126-0.207,0.179-0.332,0.122c-1.201-0.556-2.577-0.208-3.063,0.774c-0.058,0.118-0.102,0.242-0.13,0.367 C38.229,76.905,38.126,76.984,38.011,76.984z" />
    </g>
  </g>
  <g>
    <path fill="#472b29" d="M32.852,82.788h-1.107c-0.276,0-0.5-0.224-0.5-0.5s0.224-0.5,0.5-0.5h1.107 c0.276,0,0.5,0.224,0.5,0.5S33.129,82.788,32.852,82.788z" />
  </g>
</svg>