<?xml version="1.0" encoding="utf-8"?>
<svg xmlns="http://www.w3.org/2000/svg" viewBox="0 0 100 100" width="250" height="250">
  <path fill="#c7ede6" d="M88.724,55.803c0.3-0.616,0.566-1.264,0.796-1.943c2.633-7.77-1.349-17.078-9.733-19.325c-0.906-11.384-8.906-19.193-17.941-20.526c-10.341-1.525-19.814,5.044-22.966,15.485c-3.799-1.346-7.501-1.182-10.99,0.857c-1.583,0.732-3.031,1.812-4.33,3.233c-1.907,2.086-3.147,4.719-3.652,7.495c-0.748,0.118-1.483,0.236-2.176,0.484c-4.04,1.449-6.589,4.431-7.288,8.923c-0.435,2.797,0.443,5.587,0.933,6.714c1.935,4.455,6.422,6.98,10.981,6.312c0.227-0.033,0.557,0.069,0.752,0.233c0.241,7.12,3.698,13.417,8.884,17.014c8.321,5.772,19.027,3.994,25.781-3.921c2.894,2.96,6.338,4.398,10.384,3.876c4.023-0.519,7.147-2.739,9.426-6.349c1.053,0.283,2.051,0.691,3.083,0.804c4.042,0.442,7.324-1.165,9.732-4.8c0.922-1.391,1.794-3.194,1.793-6.354C92.194,60.76,90.901,57.793,88.724,55.803z" />
  <path fill="#fff" d="M18.389 47.839H8.359c-.276 0-.5-.224-.5-.5s.224-.5.5-.5h10.03c.276 0 .5.224.5.5S18.665 47.839 18.389 47.839zM21.27 47.839h-1.446c-.276 0-.5-.224-.5-.5s.224-.5.5-.5h1.446c.276 0 .5.224.5.5S21.547 47.839 21.27 47.839zM25.325 47.839h-2.546c-.276 0-.5-.224-.5-.5s.224-.5.5-.5h2.546c.276 0 .5.224.5.5S25.601 47.839 25.325 47.839zM25.325 49.704h-9.616c-.276 0-.5-.224-.5-.5s.224-.5.5-.5h9.616c.276 0 .5.224.5.5S25.601 49.704 25.325 49.704zM13.977 49.704h-.58c-.276 0-.5-.224-.5-.5s.224-.5.5-.5h.58c.276 0 .5.224.5.5S14.253 49.704 13.977 49.704zM11.6 49.704h-1.456c-.276 0-.5-.224-.5-.5s.224-.5.5-.5H11.6c.276 0 .5.224.5.5S11.876 49.704 11.6 49.704zM20.736 45.974h-5.027c-.276 0-.5-.224-.5-.5s.224-.5.5-.5h5.027c.276 0 .5.224.5.5S21.012 45.974 20.736 45.974zM20.736 44.109h-1.257c-.276 0-.5-.224-.5-.5s.224-.5.5-.5h1.257c.276 0 .5.224.5.5S21.012 44.109 20.736 44.109zM17.467 51.569h-1.759c-.276 0-.5-.224-.5-.5s.224-.5.5-.5h1.759c.276 0 .5.224.5.5S17.744 51.569 17.467 51.569zM71.567 21.562h-10.03c-.276 0-.5-.224-.5-.5s.224-.5.5-.5h10.03c.276 0 .5.224.5.5S71.843 21.562 71.567 21.562zM74.448 21.562h-1.446c-.276 0-.5-.224-.5-.5s.224-.5.5-.5h1.446c.276 0 .5.224.5.5S74.724 21.562 74.448 21.562zM78.503 21.562h-2.546c-.276 0-.5-.224-.5-.5s.224-.5.5-.5h2.546c.276 0 .5.224.5.5S78.779 21.562 78.503 21.562zM76.477 17.832h-9.616c-.276 0-.5-.224-.5-.5s.224-.5.5-.5h9.616c.276 0 .5.224.5.5S76.753 17.832 76.477 17.832zM65.129 17.832h-.58c-.276 0-.5-.224-.5-.5s.224-.5.5-.5h.58c.276 0 .5.224.5.5S65.405 17.832 65.129 17.832zM62.752 17.832h-1.457c-.276 0-.5-.224-.5-.5s.224-.5.5-.5h1.457c.276 0 .5.224.5.5S63.029 17.832 62.752 17.832zM73.914 19.697h-5.028c-.276 0-.5-.224-.5-.5s.224-.5.5-.5h5.028c.276 0 .5.224.5.5S74.19 19.697 73.914 19.697z" />
  <path fill="#fff" d="M73.914 17.832h-1.257c-.276 0-.5-.224-.5-.5s.224-.5.5-.5h1.257c.276 0 .5.224.5.5S74.19 17.832 73.914 17.832zM67.431 19.697h-1.759c-.276 0-.5-.224-.5-.5s.224-.5.5-.5h1.759c.276 0 .5.224.5.5S67.707 19.697 67.431 19.697z" />
  <path fill="#fdfcef" d="M72.79,56.5c0,0,10.309,0,10.371,0c2.381,0,4.31-1.93,4.31-4.311c0-2.077-1.469-3.81-3.425-4.219c0.023-0.182,0.038-0.366,0.038-0.554c0-2.466-1.999-4.465-4.464-4.465c-1.456,0-2.745,0.7-3.56,1.778c-0.208-2.745-2.66-4.862-5.528-4.511c-2.097,0.257-3.832,1.878-4.218,3.955c-0.124,0.666-0.111,1.313,0.012,1.92c-0.562-0.606-1.363-0.987-2.254-0.987c-1.632,0-2.963,1.27-3.069,2.875c-0.741-0.164-1.547-0.153-2.396,0.165c-1.622,0.609-2.778,2.137-2.845,3.868c-0.096,2.459,1.869,4.483,4.307,4.483c0.185,0,0.836,0,0.986,0h8.951" />
  <path fill="#472b29" d="M83.162,57H72.79c-0.276,0-0.5-0.224-0.5-0.5s0.224-0.5,0.5-0.5h10.372c2.101,0,3.81-1.709,3.81-3.811c0-1.795-1.273-3.363-3.026-3.729c-0.255-0.053-0.426-0.292-0.394-0.551c0.02-0.161,0.034-0.325,0.034-0.492c0-2.187-1.778-3.965-3.964-3.965c-1.25,0-2.402,0.576-3.161,1.58c-0.125,0.166-0.339,0.238-0.54,0.178c-0.199-0.059-0.342-0.234-0.357-0.441c-0.091-1.199-0.678-2.324-1.611-3.089c-0.941-0.771-2.142-1.112-3.358-0.964c-1.885,0.23-3.442,1.689-3.788,3.55c-0.108,0.581-0.104,1.162,0.011,1.729c0.045,0.22-0.062,0.442-0.261,0.544c-0.198,0.104-0.441,0.06-0.595-0.104c-0.496-0.533-1.167-0.827-1.888-0.827c-1.353,0-2.481,1.058-2.57,2.409c-0.01,0.146-0.083,0.279-0.199,0.367c-0.117,0.087-0.267,0.118-0.408,0.088c-0.731-0.162-1.421-0.115-2.112,0.145c-1.45,0.545-2.463,1.919-2.521,3.42c-0.041,1.048,0.336,2.04,1.061,2.794C58.049,55.585,59.024,56,60.07,56h9.937c0.276,0,0.5,0.224,0.5,0.5s-0.224,0.5-0.5,0.5H60.07c-1.32,0-2.552-0.524-3.467-1.477c-0.915-0.951-1.391-2.204-1.339-3.526c0.074-1.897,1.347-3.633,3.169-4.316c0.698-0.263,1.418-0.353,2.15-0.273c0.358-1.607,1.798-2.8,3.49-2.8c0.58,0,1.148,0.144,1.656,0.41c0.005-0.312,0.037-0.623,0.094-0.935c0.424-2.284,2.336-4.077,4.649-4.359c1.5-0.186,2.958,0.236,4.114,1.183c0.87,0.713,1.495,1.684,1.792,2.754c0.893-0.776,2.031-1.208,3.242-1.208c2.737,0,4.964,2.228,4.964,4.965c0,0.059-0.001,0.117-0.004,0.176c1.989,0.614,3.391,2.48,3.391,4.597C87.972,54.841,85.814,57,83.162,57z" />
  <path fill="#fdfcef" d="M84.907,48.476c-1.498-0.706-3.231-0.206-3.87,1.117c-0.079,0.164-0.138,0.334-0.177,0.506" />
  <path fill="#472b29" d="M80.86,50.348c-0.019,0-0.037-0.002-0.056-0.007c-0.134-0.03-0.218-0.165-0.188-0.299c0.044-0.194,0.11-0.382,0.196-0.559c0.697-1.443,2.583-1.998,4.202-1.235c0.125,0.06,0.179,0.208,0.12,0.333c-0.058,0.125-0.208,0.177-0.333,0.12c-1.372-0.647-2.959-0.199-3.539,0.999c-0.069,0.144-0.123,0.296-0.159,0.453C81.077,50.27,80.974,50.348,80.86,50.348z" />
  <path fill="#fdfcef" d="M40.098,70.737c1.883,0,3.517,0,3.54,0c2.11,0,3.821-1.674,3.821-3.739c0-1.802-1.302-3.305-3.035-3.66c0.02-0.158,0.034-0.317,0.034-0.48c0-2.139-1.772-3.873-3.957-3.873c-1.29,0-2.433,0.607-3.155,1.543c-0.185-2.381-2.358-4.218-4.9-3.913c-1.859,0.223-3.397,1.629-3.739,3.431c-0.11,0.578-0.098,1.139,0.011,1.665c-0.498-0.525-1.208-0.856-1.998-0.856c-1.446,0-2.627,1.102-2.72,2.494c-0.657-0.142-1.371-0.133-2.123,0.143c-1.438,0.528-2.462,1.853-2.522,3.356c-0.085,2.133,1.657,3.889,3.818,3.889c0.164,0,0.741,0,0.874,0h7.934 M33.62,70.737h0.36" />
  <path fill="#472b29" d="M43.638,71.237h-3.541c-0.276,0-0.5-0.224-0.5-0.5s0.224-0.5,0.5-0.5h3.541c1.831,0,3.32-1.453,3.32-3.239c0-1.524-1.108-2.857-2.635-3.169c-0.256-0.053-0.429-0.294-0.396-0.553c0.018-0.138,0.029-0.276,0.029-0.418c0-1.86-1.551-3.373-3.457-3.373c-1.092,0-2.097,0.491-2.759,1.348c-0.126,0.164-0.34,0.23-0.539,0.174c-0.198-0.06-0.339-0.234-0.355-0.44c-0.079-1.02-0.566-1.944-1.37-2.604c-0.829-0.681-1.887-0.981-2.973-0.853c-1.646,0.197-3.006,1.442-3.307,3.028c-0.094,0.493-0.091,0.988,0.01,1.471c0.045,0.219-0.06,0.441-0.258,0.545c-0.197,0.104-0.44,0.064-0.595-0.1c-0.429-0.451-1.01-0.7-1.636-0.7c-1.169,0-2.145,0.891-2.221,2.028c-0.01,0.146-0.082,0.279-0.198,0.366c-0.116,0.087-0.263,0.121-0.407,0.089c-0.637-0.137-1.241-0.099-1.845,0.124c-1.262,0.463-2.144,1.632-2.195,2.906c-0.035,0.875,0.283,1.708,0.895,2.345c0.635,0.66,1.496,1.024,2.423,1.024h8.808c0.276,0,0.5,0.224,0.5,0.5s-0.224,0.5-0.5,0.5h-8.808c-1.185,0-2.332-0.485-3.145-1.332c-0.802-0.835-1.218-1.928-1.172-3.076c0.066-1.675,1.211-3.204,2.849-3.807c0.61-0.225,1.243-0.306,1.88-0.243c0.344-1.396,1.629-2.425,3.135-2.425c0.493,0,0.977,0.113,1.414,0.323c0.009-0.242,0.037-0.484,0.083-0.727c0.382-2.009,2.097-3.585,4.17-3.833c1.364-0.168,2.685,0.218,3.726,1.071c0.748,0.613,1.279,1.409,1.547,2.303c0.791-0.648,1.785-1.007,2.842-1.007c2.458,0,4.457,1.962,4.457,4.373c0,0.034,0,0.068-0.001,0.103c1.764,0.555,3.003,2.188,3.003,4.037C47.958,69.336,46.02,71.237,43.638,71.237z M33.98,71.237H33.62c-0.276,0-0.5-0.224-0.5-0.5s0.224-0.5,0.5-0.5h0.359c0.276,0,0.5,0.224,0.5,0.5S34.256,71.237,33.98,71.237z" />
  <path fill="#472b29" d="M41.93 65.434c-.018 0-.037-.002-.055-.006-.135-.031-.219-.165-.188-.3.038-.166.094-.327.169-.479.604-1.225 2.273-1.679 3.722-1.006.125.058.18.206.122.331-.059.126-.206.181-.332.122-1.203-.556-2.578-.21-3.063.773-.058.117-.101.241-.13.369C42.148 65.355 42.044 65.434 41.93 65.434zM36.771 71.237h-1.107c-.276 0-.5-.224-.5-.5s.224-.5.5-.5h1.107c.276 0 .5.224.5.5S37.048 71.237 36.771 71.237z" />
  <path fill="#78a0cf" d="M52.09 30.820999999999998A18.686 18.686 0 1 0 52.09 68.193A18.686 18.686 0 1 0 52.09 30.820999999999998Z" />
  <path fill="#472b29" d="M52.09,68.893c-10.689,0-19.386-8.697-19.386-19.387s8.697-19.386,19.386-19.386s19.386,8.696,19.386,19.386S62.78,68.893,52.09,68.893z M52.09,31.521c-9.917,0-17.986,8.068-17.986,17.985c0,9.918,8.068,17.986,17.986,17.986s17.986-8.068,17.986-17.986C70.076,39.59,62.008,31.521,52.09,31.521z" />
  <path fill="#fdfcee" d="M52.14 33.397A16.002 16.097 0 1 0 52.14 65.59100000000001A16.002 16.097 0 1 0 52.14 33.397Z" />
  <path fill="#472b29" d="M52.199,65.968c-3.132,0-6.21-0.898-8.925-2.64c-7.69-4.936-9.999-15.18-5.146-22.837c2.339-3.69,5.979-6.243,10.25-7.188c4.319-0.953,8.761-0.156,12.507,2.247c2.646,1.698,4.751,4.091,6.089,6.92c0.094,0.2,0.009,0.438-0.191,0.532c-0.201,0.095-0.439,0.01-0.533-0.19c-1.273-2.693-3.277-4.972-5.797-6.588c-3.567-2.289-7.795-3.047-11.902-2.14c-4.062,0.898-7.523,3.325-9.747,6.834c-4.619,7.287-2.42,17.038,4.901,21.735c3.566,2.287,7.793,3.049,11.903,2.139c4.061-0.898,7.522-3.325,9.747-6.834c1.845-2.91,2.663-6.268,2.365-9.711c-0.019-0.22,0.144-0.414,0.364-0.433c0.221-0.011,0.415,0.144,0.433,0.364c0.313,3.619-0.546,7.148-2.486,10.207c-2.339,3.69-5.979,6.242-10.25,7.188C54.592,65.839,53.391,65.968,52.199,65.968z" />
  <path fill="#fdfcee" d="M67.552,45.599c0.093,0.379,0.172,0.761,0.237,1.145" />
  <path fill="#472b29" d="M67.789,47.144c-0.191,0-0.36-0.138-0.394-0.333c-0.063-0.375-0.141-0.748-0.231-1.118c-0.052-0.214,0.079-0.431,0.293-0.483c0.217-0.05,0.431,0.079,0.484,0.294c0.095,0.388,0.176,0.78,0.243,1.173c0.037,0.218-0.109,0.425-0.327,0.462C67.834,47.142,67.811,47.144,67.789,47.144z" />
  <path fill="#cbc9bc" d="M54.124,46.361l-9.884,9.945c-0.247,0.249-0.547,0.655-0.3,0.904c0.247,0.249,0.651-0.053,0.899-0.301l9.884-9.945c0.423,0.111,1.19,0.053,1.52-0.279l0.899-0.904c0.494-0.497,0.494-1.311,0-1.808c-0.494-0.497-1.303-0.497-1.797,0l-0.899,0.904C54.116,45.209,54.013,45.935,54.124,46.361z" />
  <path fill="#472b29" d="M56.243 43.6c.326 0 .651.124.899.373.494.497.494 1.311 0 1.808l-.899.904c-.231.232-.675.33-1.066.33-.168 0-.326-.018-.454-.052l-9.884 9.945c-.182.183-.449.394-.676.394-.081 0-.158-.027-.223-.093-.247-.249.052-.655.3-.904l9.884-9.945c-.111-.426-.008-1.152.322-1.484l.899-.904C55.592 43.724 55.917 43.6 56.243 43.6M56.243 42.6c-.609 0-1.18.237-1.608.668l-.899.904c-.463.466-.66 1.188-.656 1.821L43.53 55.6c-.959.965-.761 1.85-.3 2.314.249.25.58.388.932.388.464 0 .93-.232 1.385-.689l9.541-9.599c.029.001.058.001.088.001.347 0 1.214-.061 1.776-.625l.899-.904c.882-.887.882-2.331 0-3.218C57.423 42.837 56.852 42.6 56.243 42.6L56.243 42.6zM51.944 35.216c-.207 0-.375-.168-.375-.375v-1.419c0-.207.168-.375.375-.375s.375.168.375.375v1.419C52.319 35.048 52.151 35.216 51.944 35.216zM51.944 65.965c-.207 0-.375-.168-.375-.375v-1.892c0-.207.168-.375.375-.375s.375.168.375.375v1.892C52.319 65.798 52.151 65.965 51.944 65.965zM67.98 49.409H65.9c-.207 0-.375-.168-.375-.375s.168-.375.375-.375h2.081c.207 0 .375.168.375.375S68.187 49.409 67.98 49.409zM38.161 49.409H36.2c-.207 0-.375-.168-.375-.375s.168-.375.375-.375h1.961c.207 0 .375.168.375.375S38.368 49.409 38.161 49.409z" />
  <path fill="#f27e97" d="M63.144 38.231L61.82 39.564" />
  <path fill="#472b29" d="M61.82,39.939c-0.096,0-0.191-0.036-0.264-0.109c-0.147-0.146-0.148-0.383-0.002-0.53l1.325-1.333c0.146-0.146,0.385-0.147,0.53-0.001c0.147,0.146,0.148,0.383,0.002,0.53l-1.325,1.333C62.013,39.902,61.916,39.939,61.82,39.939z" />
  <path fill="#f27e97" d="M42.106 59.397L40.782 60.73" />
  <path fill="#472b29" d="M40.782,61.105c-0.096,0-0.191-0.036-0.264-0.109c-0.147-0.146-0.148-0.383-0.002-0.53l1.325-1.333c0.146-0.146,0.384-0.147,0.53-0.001c0.147,0.146,0.148,0.383,0.002,0.53l-1.325,1.333C40.974,61.068,40.878,61.105,40.782,61.105z" />
  <path fill="#f27e97" d="M63.422 60.878L62.098 59.546" />
  <path fill="#472b29" d="M63.422,61.253c-0.096,0-0.192-0.037-0.266-0.11l-1.325-1.332c-0.146-0.147-0.145-0.385,0.001-0.53c0.147-0.147,0.384-0.145,0.531,0.001l1.325,1.332c0.146,0.147,0.145,0.385-0.001,0.53C63.614,61.216,63.518,61.253,63.422,61.253z" />
  <path fill="#f27e97" d="M42.106 39.352L40.782 38.019" />
  <path fill="#472b29" d="M42.106 39.727c-.096 0-.193-.037-.266-.11l-1.325-1.333c-.146-.147-.145-.385.002-.53.146-.147.384-.145.53.001l1.325 1.333c.146.147.145.385-.002.53C42.298 39.691 42.202 39.727 42.106 39.727zM60.397 49.734h-6.623c-.207 0-.375-.168-.375-.375s.168-.375.375-.375h6.623c.207 0 .375.168.375.375S60.604 49.734 60.397 49.734zM51.882 48.314c-.207 0-.375-.168-.375-.375v-10.88c0-.207.168-.375.375-.375s.375.168.375.375v10.88C52.257 48.146 52.089 48.314 51.882 48.314z" />
  <path fill="#f1bc19" d="M51.882 47.703A1.656 1.656 0 1 0 51.882 51.015A1.656 1.656 0 1 0 51.882 47.703Z" />
  <path fill="#472b29" d="M51.882,51.514c-1.188,0-2.156-0.967-2.156-2.155s0.967-2.156,2.156-2.156s2.156,0.968,2.156,2.156S53.071,51.514,51.882,51.514z M51.882,48.203c-0.637,0-1.156,0.519-1.156,1.156c0,0.637,0.519,1.155,1.156,1.155s1.156-0.519,1.156-1.155C53.038,48.721,52.519,48.203,51.882,48.203z" />
  <path fill="#fdfcee" d="M65.963 54.202A9.457 9.457 0 1 0 65.963 73.116A9.457 9.457 0 1 0 65.963 54.202Z" />
  <path fill="#472b29" d="M65.963,73.816c-5.601,0-10.157-4.557-10.157-10.157s4.557-10.157,10.157-10.157c5.601,0,10.158,4.557,10.158,10.157S71.564,73.816,65.963,73.816z M65.963,54.902c-4.829,0-8.757,3.928-8.757,8.757s3.928,8.757,8.757,8.757c4.829,0,8.757-3.928,8.757-8.757S70.792,54.902,65.963,54.902z" />
  <g>
    <path fill="#fbcd59" d="M63.398 61.696999999999996A3.251 3.251 0 1 0 63.398 68.199A3.251 3.251 0 1 0 63.398 61.696999999999996Z" />
    <path fill="#472b29" d="M63.397,68.699c-2.068,0-3.751-1.683-3.751-3.751s1.683-3.751,3.751-3.751c2.068,0,3.751,1.683,3.751,3.751S65.466,68.699,63.397,68.699z M63.397,62.197c-1.517,0-2.751,1.234-2.751,2.751s1.234,2.751,2.751,2.751c1.517,0,2.751-1.234,2.751-2.751S64.914,62.197,63.397,62.197z" />
    <path fill="#f1bc19" d="M68.823 58.966A3.251 3.251 0 1 0 68.823 65.468A3.251 3.251 0 1 0 68.823 58.966Z" />
    <path fill="#472b29" d="M68.823,65.968c-2.068,0-3.751-1.683-3.751-3.751s1.683-3.752,3.751-3.752s3.751,1.684,3.751,3.752S70.891,65.968,68.823,65.968z M68.823,59.465c-1.517,0-2.751,1.234-2.751,2.752c0,1.517,1.234,2.751,2.751,2.751s2.751-1.234,2.751-2.751C71.574,60.7,70.34,59.465,68.823,59.465z" />
    <g>
      <path fill="#472b29" d="M62.912,65.753c0.004,0,0.012,0.004,0.025,0.012l-0.006-0.003c0.06,0.042,0.115,0.074,0.162,0.099c0.048,0.024,0.099,0.041,0.153,0.051v-0.971L63.19,64.91c-0.069-0.038-0.134-0.077-0.197-0.119c-0.062-0.042-0.119-0.087-0.168-0.137c-0.05-0.05-0.092-0.103-0.127-0.159c-0.034-0.056-0.058-0.118-0.07-0.184c-0.008-0.033-0.013-0.065-0.014-0.094c-0.001-0.029-0.002-0.06-0.002-0.094c0-0.098,0.016-0.183,0.048-0.256c0.032-0.073,0.076-0.135,0.133-0.186c0.056-0.051,0.123-0.092,0.2-0.122c0.077-0.03,0.161-0.05,0.253-0.061v-0.087c0-0.042,0.009-0.077,0.028-0.106c0.019-0.029,0.053-0.044,0.103-0.044h0.013c0.108,0,0.167,0.053,0.178,0.159l-0.003,0.084c0.058,0.01,0.118,0.027,0.179,0.049c0.061,0.022,0.131,0.049,0.208,0.083l-0.009-0.006c0.035,0.012,0.063,0.028,0.083,0.047c0.02,0.019,0.032,0.049,0.036,0.09v0.019c0,0.015-0.004,0.033-0.011,0.056c-0.007,0.023-0.018,0.045-0.033,0.066c-0.015,0.021-0.031,0.039-0.05,0.055c-0.019,0.016-0.04,0.024-0.062,0.024c-0.019,0-0.036-0.002-0.052-0.005c-0.015-0.003-0.034-0.012-0.055-0.026v0.003l-0.034-0.019c-0.06-0.031-0.127-0.056-0.2-0.075v0.852l0.012,0.006c0.168,0.085,0.299,0.18,0.39,0.284c0.091,0.104,0.152,0.212,0.181,0.325c0.012,0.048,0.021,0.091,0.026,0.131c0.005,0.04,0.008,0.08,0.008,0.122c0,0.096-0.016,0.182-0.047,0.259c-0.031,0.077-0.074,0.144-0.128,0.201c-0.054,0.057-0.119,0.104-0.195,0.14c-0.076,0.037-0.159,0.061-0.248,0.073v0.225c0,0.042-0.008,0.077-0.025,0.106c-0.017,0.029-0.051,0.044-0.103,0.044h-0.019c-0.052,0-0.093-0.014-0.125-0.042c-0.031-0.028-0.047-0.069-0.047-0.123v-0.209c-0.112-0.012-0.209-0.037-0.29-0.075c-0.081-0.037-0.165-0.084-0.25-0.14c-0.023-0.019-0.039-0.036-0.047-0.053c-0.008-0.017-0.018-0.039-0.028-0.069v-0.019c0-0.019,0.006-0.04,0.017-0.064c0.011-0.024,0.025-0.047,0.042-0.069s0.034-0.041,0.053-0.056c0.019-0.015,0.036-0.023,0.053-0.023c0.023,0,0.043,0.007,0.061,0.02c0.018,0.013,0.035,0.027,0.051,0.042H62.912c0.004,0.002,0.007,0.003,0.009,0.003L62.912,65.753z M63.073,64.426c0.049,0.046,0.107,0.086,0.173,0.122v-0.684c-0.079,0.017-0.145,0.049-0.198,0.097c-0.053,0.048-0.08,0.113-0.08,0.194c0,0.012,0.001,0.026,0.002,0.041c0.001,0.014,0.004,0.032,0.008,0.053C62.992,64.321,63.024,64.381,63.073,64.426z M63.714,65.249c-0.042-0.051-0.092-0.095-0.15-0.133v0.777c0.073-0.029,0.134-0.074,0.183-0.134c0.049-0.06,0.073-0.131,0.073-0.212c0-0.023-0.002-0.044-0.006-0.062c-0.004-0.019-0.008-0.039-0.012-0.059C63.785,65.359,63.756,65.3,63.714,65.249z" />
    </g>
    <g>
      <path fill="#472b29" d="M68.337,63.022c0.004,0,0.012,0.004,0.025,0.012l-0.006-0.003c0.06,0.042,0.115,0.074,0.162,0.099c0.048,0.024,0.099,0.041,0.153,0.051v-0.971l-0.056-0.031c-0.069-0.038-0.134-0.077-0.197-0.119c-0.062-0.042-0.119-0.087-0.168-0.137c-0.05-0.05-0.092-0.103-0.127-0.159c-0.034-0.056-0.058-0.118-0.07-0.184c-0.008-0.033-0.013-0.065-0.014-0.094c-0.001-0.029-0.002-0.06-0.002-0.094c0-0.098,0.016-0.183,0.048-0.256c0.032-0.073,0.076-0.135,0.133-0.186c0.056-0.051,0.123-0.092,0.2-0.122c0.077-0.03,0.161-0.05,0.253-0.061v-0.087c0-0.042,0.009-0.077,0.028-0.106c0.019-0.029,0.053-0.044,0.103-0.044h0.013c0.108,0,0.167,0.053,0.178,0.159l-0.003,0.084c0.058,0.01,0.118,0.027,0.179,0.049c0.061,0.022,0.131,0.049,0.208,0.083L69.368,60.9c0.035,0.012,0.063,0.028,0.083,0.047c0.02,0.019,0.032,0.049,0.036,0.09v0.019c0,0.015-0.004,0.033-0.011,0.056c-0.007,0.023-0.018,0.045-0.033,0.066c-0.015,0.021-0.031,0.039-0.05,0.055c-0.019,0.016-0.04,0.024-0.062,0.024c-0.019,0-0.036-0.002-0.052-0.005c-0.015-0.003-0.034-0.012-0.055-0.026v0.003l-0.034-0.019c-0.06-0.031-0.127-0.056-0.2-0.075v0.852l0.012,0.006c0.168,0.085,0.299,0.18,0.39,0.284c0.091,0.104,0.152,0.212,0.181,0.325c0.012,0.048,0.021,0.091,0.026,0.131c0.005,0.04,0.008,0.08,0.008,0.122c0,0.096-0.016,0.182-0.047,0.259c-0.031,0.077-0.074,0.144-0.128,0.201c-0.054,0.057-0.119,0.104-0.195,0.14c-0.076,0.037-0.159,0.061-0.248,0.073v0.225c0,0.042-0.008,0.077-0.025,0.106c-0.017,0.029-0.051,0.044-0.103,0.044h-0.019c-0.052,0-0.093-0.014-0.125-0.042s-0.047-0.069-0.047-0.123v-0.209c-0.112-0.012-0.209-0.037-0.29-0.075c-0.081-0.037-0.165-0.084-0.25-0.14c-0.023-0.019-0.039-0.036-0.047-0.053c-0.008-0.017-0.018-0.039-0.028-0.069v-0.019c0-0.019,0.006-0.04,0.017-0.064c0.011-0.024,0.025-0.047,0.042-0.069c0.017-0.022,0.034-0.041,0.053-0.056s0.036-0.023,0.053-0.023c0.023,0,0.043,0.007,0.061,0.02c0.018,0.013,0.035,0.027,0.051,0.042H68.337c0.004,0.002,0.007,0.003,0.009,0.003L68.337,63.022z M68.498,61.696c0.049,0.046,0.107,0.086,0.173,0.122v-0.684c-0.079,0.017-0.145,0.049-0.198,0.097c-0.053,0.048-0.08,0.113-0.08,0.194c0,0.012,0.001,0.026,0.002,0.041s0.004,0.032,0.008,0.053C68.417,61.591,68.449,61.65,68.498,61.696z M69.14,62.518c-0.042-0.051-0.092-0.095-0.15-0.133v0.777c0.073-0.029,0.134-0.074,0.183-0.134c0.049-0.06,0.073-0.131,0.073-0.212c0-0.023-0.002-0.044-0.006-0.062c-0.004-0.019-0.008-0.039-0.012-0.059C69.21,62.628,69.181,62.569,69.14,62.518z" />
    </g>
  </g>
</svg>