<?xml version="1.0" encoding="utf-8"?>
<svg xmlns="http://www.w3.org/2000/svg" viewBox="0 0 100 100" width="50" height="50">
  <path fill="#f15b6c" d="M67,16c-3.967,0-7.383,2.315-9,5.663C56.383,18.315,52.967,16,49,16c-5.523,0-10,4.477-10,10 c0,10,19,22,19,22s19-12,19-22C77,20.477,72.523,16,67,16z" />
  <path fill="#ead6c7" d="M12,74l13-5l31.921,14.547C57.582,83.85,58.291,84,59,84c0.767,0,1.533-0.176,2.236-0.528l24-12 c2.47-1.235,3.471-4.238,2.236-6.708c-0.895-1.791-2.721-2.81-4.597-2.764l0.007,0.015c-0.086-0.424-0.207-0.845-0.41-1.251 c-1.093-2.186-3.57-3.215-5.836-2.568l0,0c-0.056-0.144-0.094-0.291-0.164-0.432c-1.235-2.471-4.24-3.472-6.708-2.236L57.396,60.83 l-0.021-0.019c-0.117-0.072-0.238-0.139-0.362-0.203l-18.455-9.479l-0.209-0.102c-2.95-1.361-6.093-2.054-9.341-2.058 c-0.011,0-0.021,0-0.032,0c-2.818,0-5.576,0.523-8.204,1.559L12,53.993" />
  <path fill="none" stroke="#1f212b" stroke-linejoin="round" stroke-width="2" d="M67,16 c-3.967,0-7.383,2.315-9,5.663C56.383,18.315,52.967,16,49,16c-5.523,0-10,4.477-10,10c0,10,19,22,19,22s19-12,19-22 C77,20.477,72.523,16,67,16z" />
  <path fill="none" stroke="#1f212b" stroke-linecap="round" d="M70.786 28.5c.457-.915.714-1.76.714-2.5 0-.925-.282-1.784-.762-2.5M60.5 39.456c3.134-2.482 6.2-5.328 8.296-7.956" />
  <path fill="none" stroke="#1f212b" d="M76.774,58.676c-0.3,0.086-0.557,0.184-0.786,0.298l-16.522,7.083" />
  <path fill="none" stroke="#1f212b" stroke-linecap="round" stroke-width="2" d="M57.375 60.811c-.117-.072-.238-.139-.362-.203l-18.455-9.479-.209-.102c-2.95-1.361-6.093-2.054-9.341-2.058-.011 0-.021 0-.032 0-2.818 0-5.576.523-8.204 1.559L12 53.993M12 74l13-5 31.921 14.547C57.582 83.85 58.291 84 59 84c.767 0 1.533-.176 2.236-.528l24-12c2.47-1.235 3.471-4.238 2.236-6.708-.895-1.791-2.721-2.81-4.597-2.764" />
  <path fill="none" stroke="#1f212b" stroke-linecap="round" stroke-width="2" d="M82.882,62.015 c-0.086-0.424-0.207-0.845-0.41-1.251c-1.093-2.186-3.57-3.215-5.836-2.568l0,0c-0.056-0.144-0.094-0.291-0.164-0.432 c-1.235-2.471-4.24-3.472-6.708-2.236L57.396,60.83" />
  <path fill="none" stroke="#1f212b" stroke-linejoin="round" d="M82.893,62.515 c-0.686,0.015-1.327,0.17-1.905,0.46L60.962,71.56l-3.447-2.068" />
  <path fill="none" stroke="#1f212b" stroke-linecap="round" d="M39.5 63.689L41.5 64.673M43.5 65.658l8.708 4.286c.723.371 1.49.557 2.288.557 1.885 0 3.591-1.041 4.452-2.716 1.189-2.315.383-5.191-1.833-6.548" />
</svg>